<?xml version="1.0" encoding="UTF-8" standalone="no"?>
<svg
   xmlns:dc="http://purl.org/dc/elements/1.1/"
   xmlns:cc="http://creativecommons.org/ns#"
   xmlns:rdf="http://www.w3.org/1999/02/22-rdf-syntax-ns#"
   xmlns:svg="http://www.w3.org/2000/svg"
   xmlns="http://www.w3.org/2000/svg"
   xmlns:sodipodi="http://sodipodi.sourceforge.net/DTD/sodipodi-0.dtd"
   xmlns:inkscape="http://www.inkscape.org/namespaces/inkscape"
   width="210mm"
   height="297mm"
   viewBox="0 0 210 297"
   version="1.1"
   id="svg8"
   inkscape:version="1.0.1 (0767f8302a, 2020-10-17)"
   sodipodi:docname="people-trem.svg">
  <defs
     id="defs2">
    <clipPath
       clipPathUnits="userSpaceOnUse"
       id="clipPath857">
      <path
         d="M 0,0 H 1920 V 1080 H 0 Z"
         id="path855" />
    </clipPath>
    <clipPath
       clipPathUnits="userSpaceOnUse"
       id="clipPath927">
      <path
         d="M 0,0 H 1920 V 1080 H 0 Z"
         id="path925" />
    </clipPath>
    <clipPath
       clipPathUnits="userSpaceOnUse"
       id="clipPath959">
      <path
         d="M 0,0 H 1920 V 1080 H 0 Z"
         id="path957" />
    </clipPath>
    <clipPath
       clipPathUnits="userSpaceOnUse"
       id="clipPath997">
      <path
         d="M 0,0 H 1920 V 1080 H 0 Z"
         id="path995" />
    </clipPath>
    <clipPath
       clipPathUnits="userSpaceOnUse"
       id="clipPath1021">
      <path
         d="M 0,0 H 1920 V 1080 H 0 Z"
         id="path1019" />
    </clipPath>
    <clipPath
       clipPathUnits="userSpaceOnUse"
       id="clipPath1067">
      <path
         d="M 0,0 H 1920 V 1080 H 0 Z"
         id="path1065" />
    </clipPath>
  </defs>
  <sodipodi:namedview
     id="base"
     pagecolor="#ffffff"
     bordercolor="#666666"
     borderopacity="1.0"
     inkscape:pageopacity="0.0"
     inkscape:pageshadow="2"
     inkscape:zoom="0.7"
     inkscape:cx="392.90517"
     inkscape:cy="542.72975"
     inkscape:document-units="mm"
     inkscape:current-layer="layer1"
     inkscape:document-rotation="0"
     showgrid="false"
     inkscape:window-width="1920"
     inkscape:window-height="1023"
     inkscape:window-x="0"
     inkscape:window-y="25"
     inkscape:window-maximized="1" />
  <metadata
     id="metadata5">
    <rdf:RDF>
      <cc:Work
         rdf:about="">
        <dc:format>image/svg+xml</dc:format>
        <dc:type
           rdf:resource="http://purl.org/dc/dcmitype/StillImage" />
        <dc:title></dc:title>
      </cc:Work>
    </rdf:RDF>
  </metadata>
  <g
     inkscape:label="Layer 1"
     inkscape:groupmode="layer"
     id="layer1">
    <g
       transform="matrix(0.02764122,0,0,-0.02764122,-3.437548,195.35631)"
       fill="#000000"
       stroke="none"
       id="g3911"
       style="fill:#ffffff">
      <path
         d="m 2735,5839 c -6,-17 -12,-19 -33,-14 -221,55 -432,2 -577,-145 l -46,-46 243,-94 c 134,-51 247,-96 252,-101 5,-4 -15,-72 -47,-156 -51,-137 -57,-148 -79,-145 -18,2 -20,1 -8,-7 12,-8 12,-12 -3,-29 -21,-23 -23,-39 -1,-18 38,39 104,-4 90,-58 -11,-45 -57,-41 -87,8 -20,31 -20,31 -13,4 9,-41 -11,-34 -30,10 -15,34 -15,22 0,-28 5,-15 2,-20 -14,-20 -27,0 -44,23 -46,62 -2,35 -16,41 -26,12 -14,-39 17,-91 62,-106 6,-2 1,-23 -14,-52 l -25,-49 -31,51 c -17,28 -47,68 -65,89 -60,67 -72,103 -34,103 13,0 31,6 40,13 20,14 39,113 26,137 -4,8 -15,31 -24,51 -21,48 -52,63 -108,55 -99,-15 -129,-100 -65,-188 21,-28 -14,-56 -76,-61 l -51,-3 51,-2 50,-2 29,-60 c 25,-52 31,-59 52,-54 33,9 46,-32 41,-127 -4,-62 -12,-91 -41,-154 -36,-76 -50,-155 -26,-155 18,0 68,33 74,49 30,79 45,271 26,338 -5,18 -6,45 -2,60 7,28 8,28 52,-33 25,-34 51,-76 58,-93 8,-17 16,-31 20,-31 4,0 17,20 29,45 l 22,46 29,-16 c 17,-8 36,-15 43,-14 7,0 -4,7 -24,16 -43,17 -49,38 -14,47 49,12 59,-1 53,-68 -2,-34 -15,-87 -27,-119 -25,-66 -108,-164 -131,-155 -8,3 -27,24 -42,46 l -28,40 15,76 c 9,41 16,85 15,98 -1,13 -7,-9 -14,-48 -7,-39 -20,-92 -29,-118 -17,-50 -21,-87 -5,-46 l 10,24 39,-44 c 38,-45 38,-45 67,-29 68,40 139,187 144,298 2,31 7,51 14,51 18,0 45,34 45,57 0,11 -9,32 -20,46 -11,14 -20,29 -20,33 0,7 73,216 101,291 8,21 14,19 251,-73 133,-52 246,-94 250,-94 11,0 10,66 -3,136 -14,75 -75,206 -122,262 -50,60 -118,114 -183,147 -46,23 -52,30 -44,45 6,12 6,21 1,25 -5,3 -13,-4 -16,-16 z m -526,-496 c 11,-10 29,-39 40,-65 l 20,-47 -22,-14 c -58,-38 -99,-20 -101,45 -1,25 -8,34 -33,47 -40,20 -41,26 -5,39 42,16 78,14 101,-5 z m -92,-105 c 24,-38 50,-131 44,-159 l -6,-31 -33,45 c -25,36 -31,51 -26,76 4,18 2,31 -4,31 -11,0 -23,36 -14,44 9,10 31,6 39,-6 z m 2,-154 c 33,-47 33,-47 13,-67 -20,-20 -20,-20 -51,41 -29,57 -29,67 0,71 3,1 20,-20 38,-45 z m 71,-50 c 0,-14 -4,-22 -10,-19 -5,3 -10,17 -10,31 0,14 4,22 10,19 6,-3 10,-17 10,-31 z m 275,-44 c 3,-5 1,-10 -4,-10 -6,0 -11,5 -11,10 0,6 2,10 4,10 3,0 8,-4 11,-10 z"
         id="path3197"
         style="fill:#ffffff" />
      <path
         d="m 2220,5260 c 0,-5 5,-10 10,-10 6,0 10,5 10,10 0,6 -4,10 -10,10 -5,0 -10,-4 -10,-10 z"
         id="path3199"
         style="fill:#ffffff" />
      <path
         d="m 6874,5706 c -18,-8 -36,-21 -41,-30 -8,-14 -156,-16 -1568,-19 l -1560,-2 1590,-3 c 1499,-3 1589,-4 1565,-20 -14,-9 -34,-27 -46,-39 l -21,-23 -1544,-3 -1544,-2 1542,-3 1542,-2 4,-27 c 4,-28 4,-28 6,3 1,36 31,71 77,90 77,32 98,2 44,-59 l -30,-35 31,-13 c 43,-17 89,-57 89,-77 0,-8 3,-13 6,-9 12,12 -8,47 -36,64 -16,9 -27,20 -24,25 3,4 1,8 -4,8 -19,0 -21,30 -5,58 23,40 11,65 -28,60 -16,-3 -32,-1 -35,4 -3,4 -15,8 -27,8 -20,0 -20,1 -4,18 10,9 32,22 50,29 18,6 25,12 17,12 -8,0 -29,-6 -46,-13 z m 59,-170 c 4,-10 1,-13 -9,-9 -15,6 -19,23 -5,23 5,0 11,-7 14,-14 z"
         id="path3201"
         style="fill:#ffffff" />
      <path
         d="m 6941,5708 c 2,-2 17,-14 33,-28 26,-23 28,-23 18,-4 -6,12 -9,23 -7,26 2,2 -8,5 -22,6 -15,1 -25,1 -22,0 z"
         id="path3203"
         style="fill:#ffffff" />
      <path
         d="m 7020,5683 c 12,-9 29,-30 37,-47 14,-30 12,-8 -2,27 -6,14 -2,17 19,17 19,0 32,-9 47,-32 12,-18 19,-25 15,-16 -5,16 9,18 157,21 l 162,3 -164,2 c -122,1 -168,6 -180,16 -9,7 -38,16 -64,19 -45,4 -47,4 -27,-10 z"
         id="path3205"
         style="fill:#ffffff" />
      <path
         d="m 7008,5602 c 4,-43 1,-52 -16,-63 -20,-13 -20,-13 3,-31 19,-14 33,-17 65,-12 29,5 44,3 50,-6 5,-8 14,2 26,29 l 19,40 150,3 150,4 -152,2 c -148,2 -152,2 -156,25 -2,12 -5,4 -6,-19 -1,-46 -18,-67 -53,-63 -13,1 -31,-1 -40,-6 -27,-11 -52,2 -42,23 13,29 16,89 6,108 -6,12 -8,2 -4,-34 z"
         id="path3207"
         style="fill:#ffffff" />
      <path
         d="m 7073,5565 c 0,-22 2,-30 4,-17 2,12 2,30 0,40 -3,9 -5,-1 -4,-23 z"
         id="path3209"
         style="fill:#ffffff" />
      <path
         d="m 6800,5495 c 0,-5 9,-25 20,-43 13,-21 18,-43 15,-60 l -5,-27 10,26 c 9,21 6,34 -15,70 -13,24 -25,40 -25,34 z"
         id="path3211"
         style="fill:#ffffff" />
      <path
         d="m 7100,5460 c 0,-7 -17,-29 -37,-49 -22,-21 -28,-29 -13,-20 31,20 66,66 57,76 -4,3 -7,0 -7,-7 z"
         id="path3213"
         style="fill:#ffffff" />
      <path
         d="m 6374,5394 c -15,-8 -34,-24 -41,-34 -14,-19 -28,-20 -442,-20 -353,0 -431,-2 -447,-14 -18,-14 -19,-32 -19,-563 l -1,-548 6,541 c 4,438 8,544 19,557 12,15 55,17 436,17 h 422 l -1,-44 c -1,-30 5,-50 17,-64 14,-15 17,-30 13,-54 l -5,-33 10,30 c 10,29 13,30 67,30 41,0 72,7 110,26 l 52,26 -7,-36 c -12,-67 -10,-76 20,-79 38,-5 44,-27 18,-62 -11,-16 -21,-41 -21,-56 0,-25 2,-26 36,-21 71,12 102,65 82,143 -8,34 -7,48 8,75 19,38 21,84 3,105 -10,12 -3,14 45,14 38,0 56,-4 57,-12 0,-7 5,-2 10,11 5,13 7,26 4,29 -3,3 -5,0 -5,-6 0,-8 -22,-12 -65,-12 -52,0 -71,5 -101,25 -20,14 -46,25 -58,26 -37,2 -70,-3 -89,-13 -13,-7 -25,-5 -40,5 -35,22 -64,26 -93,11 z"
         id="path3215"
         style="fill:#ffffff" />
      <path
         d="m 7033,5260 c 1,-109 1,-110 4,-22 4,94 8,101 44,82 18,-10 19,-27 19,-563 0,-428 -3,-556 -12,-567 -11,-12 -10,-12 5,-1 16,13 17,49 15,570 l -3,556 -32,15 c -18,8 -34,22 -36,30 -3,8 -4,-37 -4,-100 z"
         id="path3217"
         style="fill:#ffffff" />
      <path
         d="m 4649,5333 c 433,-2 618,-6 628,-14 19,-16 20,-1108 1,-1129 -11,-12 -10,-12 5,-1 16,13 17,51 17,566 0,522 -1,553 -18,568 -17,16 -73,17 -633,15 l -614,-3 z"
         id="path3219"
         style="fill:#ffffff" />
      <path
         d="m 6781,5229 c -12,-39 -21,-72 -19,-75 2,-2 14,28 27,67 12,39 21,72 19,75 -2,2 -14,-28 -27,-67 z"
         id="path3221"
         style="fill:#ffffff" />
      <path
         d="m 6350,5144 c 0,-8 5,-12 10,-9 6,4 8,11 5,16 -9,14 -15,11 -15,-7 z"
         id="path3223"
         style="fill:#ffffff" />
      <path
         d="m 6386,5135 c -23,-35 -20,-55 7,-54 16,1 18,2 5,6 -22,6 -23,17 -2,48 9,14 14,25 11,25 -2,0 -12,-11 -21,-25 z"
         id="path3225"
         style="fill:#ffffff" />
      <path
         d="m 6455,5130 c -3,-5 1,-10 9,-10 9,0 16,5 16,10 0,6 -4,10 -9,10 -6,0 -13,-4 -16,-10 z"
         id="path3227"
         style="fill:#ffffff" />
      <path
         d="m 2386,5114 c -24,-24 -19,-30 7,-8 12,10 24,20 26,21 2,2 -1,3 -7,3 -6,0 -18,-7 -26,-16 z"
         id="path3229"
         style="fill:#ffffff" />
      <path
         d="m 6322,5110 c 0,-14 2,-19 5,-12 2,6 2,18 0,25 -3,6 -5,1 -5,-13 z"
         id="path3231"
         style="fill:#ffffff" />
      <path
         d="m 7021,5073 c 1,-62 6,-56 11,15 2,23 0,42 -4,42 -5,0 -7,-26 -7,-57 z"
         id="path3233"
         style="fill:#ffffff" />
      <path
         d="m 1894,5101 c -50,-23 -89,-68 -126,-148 -63,-133 -61,-254 7,-388 33,-66 35,-75 33,-163 l -2,-94 -38,-16 c -47,-20 -49,-40 -11,-116 l 27,-55 -22,-83 c -31,-117 -101,-253 -168,-327 -31,-33 -52,-61 -47,-61 4,0 -11,-18 -35,-39 -49,-45 -53,-25 38,-203 30,-60 60,-108 67,-108 21,0 25,39 9,103 -13,53 -14,112 -1,125 2,2 13,-6 25,-18 l 21,-21 50,28 c 158,87 278,263 329,481 9,41 18,56 40,67 l 29,15 21,-58 c 36,-93 78,-273 100,-420 13,-88 25,-141 34,-147 8,-6 17,-27 21,-48 4,-20 12,-40 19,-46 18,-15 321,40 321,59 0,9 -15,17 -40,22 -123,24 -171,52 -145,83 15,18 9,90 -26,285 -41,236 -110,473 -189,645 -19,43 -36,94 -36,114 l -2,36 -6,-35 -6,-35 -129,-3 c -71,-1 -133,1 -137,5 -5,5 -15,33 -24,63 -12,42 -14,46 -11,17 5,-35 3,-38 -35,-58 -31,-15 -44,-18 -54,-9 -22,19 -56,118 -62,184 -13,144 83,340 176,361 17,4 31,11 31,16 0,5 -1,9 -2,8 -2,0 -21,-9 -44,-18 z m 6,-540 c 0,-5 2,-16 5,-23 4,-9 -7,-20 -30,-31 -44,-21 -42,-21 -55,3 -9,17 -5,22 27,39 43,23 53,25 53,12 z m 88,-72 c 28,-11 29,-39 2,-39 -17,0 -20,-6 -18,-27 3,-24 -3,-31 -34,-46 -41,-20 -72,-12 -82,20 -19,71 -18,79 16,96 32,17 64,15 116,-4 z m 195,-175 c 32,-65 60,-129 60,-143 2,-22 -15,-32 -177,-107 -99,-46 -186,-84 -193,-84 -14,0 -120,213 -130,261 -5,24 2,29 179,111 100,48 187,85 193,84 5,-1 36,-56 68,-122 z"
         id="path3235"
         style="fill:#ffffff" />
      <path
         d="m 6726,5054 c -10,-31 -16,-58 -14,-60 3,-2 12,21 22,52 10,31 16,58 14,60 -3,2 -12,-21 -22,-52 z"
         id="path3237"
         style="fill:#ffffff" />
      <path
         d="m 6313,5045 c 0,-22 2,-30 4,-17 2,12 2,30 0,40 -3,9 -5,-1 -4,-23 z"
         id="path3239"
         style="fill:#ffffff" />
      <path
         d="m 3009,5050 c -169,-43 -302,-168 -360,-337 -30,-88 -33,-231 -5,-313 39,-118 106,-208 204,-274 214,-144 489,-115 662,71 97,104 142,215 142,353 0,255 -178,466 -430,510 -77,14 -129,11 -213,-10 z m 263,-81 c 382,-128 412,-644 48,-818 -71,-34 -81,-36 -175,-36 -80,0 -112,5 -160,23 -116,44 -212,137 -257,249 -19,48 -23,76 -22,168 0,102 2,115 31,177 53,114 142,194 262,235 87,30 189,31 273,2 z"
         id="path3241"
         style="fill:#ffffff" />
      <path
         d="m 3125,4940 c -7,-22 2,-60 15,-60 4,0 9,10 12,23 8,48 -14,79 -27,37 z"
         id="path3243"
         style="fill:#ffffff" />
      <path
         d="m 2840,4832 c 0,-14 48,-54 60,-50 15,5 -27,58 -46,58 -8,0 -14,-4 -14,-8 z"
         id="path3245"
         style="fill:#ffffff" />
      <path
         d="m 3392,4820 c -25,-23 -28,-40 -9,-40 16,0 47,32 47,48 0,18 -13,15 -38,-8 z"
         id="path3247"
         style="fill:#ffffff" />
      <path
         d="m 3058,4601 72,-68 v -144 c 1,-206 18,-160 35,92 l 4,66 -37,30 c -54,43 -129,93 -139,93 -4,-1 25,-31 65,-69 z"
         id="path3249"
         style="fill:#ffffff" />
      <path
         d="m 2727,4554 c -13,-13 5,-24 39,-24 24,0 34,5 34,15 0,10 -10,15 -33,15 -19,0 -37,-3 -40,-6 z"
         id="path3251"
         style="fill:#ffffff" />
      <path
         d="m 3475,4550 c -3,-5 0,-13 9,-16 21,-8 61,-1 61,11 0,14 -62,19 -70,5 z"
         id="path3253"
         style="fill:#ffffff" />
      <path
         d="m 2862,4287 c -25,-27 -28,-37 -9,-37 16,0 47,32 47,48 0,19 -14,14 -38,-11 z"
         id="path3255"
         style="fill:#ffffff" />
      <path
         d="m 3370,4303 c 1,-13 38,-53 49,-53 17,0 13,25 -7,43 -19,18 -42,23 -42,10 z"
         id="path3257"
         style="fill:#ffffff" />
      <path
         d="m 3125,4190 c -7,-23 2,-60 16,-60 5,0 9,18 9,40 0,42 -14,54 -25,20 z"
         id="path3259"
         style="fill:#ffffff" />
      <path
         d="m 7013,4975 c 0,-22 2,-30 4,-17 2,12 2,30 0,40 -3,9 -5,-1 -4,-23 z"
         id="path3261"
         style="fill:#ffffff" />
      <path
         d="m 1944,4968 c -32,-39 -64,-105 -63,-133 0,-11 8,4 18,33 10,29 32,70 50,92 38,48 34,54 -5,8 z"
         id="path3263"
         style="fill:#ffffff" />
      <path
         d="m 6320,4991 c 0,-5 7,-14 15,-21 9,-8 13,-22 10,-39 -4,-21 -4,-22 3,-6 8,17 18,20 73,19 35,-1 46,0 24,2 -64,7 -84,13 -105,34 -11,11 -20,16 -20,11 z"
         id="path3265"
         style="fill:#ffffff" />
      <path
         d="m 6581,4964 c 0,-11 3,-14 6,-6 3,7 2,16 -1,19 -3,4 -6,-2 -5,-13 z"
         id="path3267"
         style="fill:#ffffff" />
      <path
         d="m 2251,4934 c 0,-11 3,-14 6,-6 3,7 2,16 -1,19 -3,4 -6,-2 -5,-13 z"
         id="path3269"
         style="fill:#ffffff" />
      <path
         d="m 6681,4911 -12,-43 -42,6 c -23,3 -43,5 -44,5 -1,1 -4,16 -6,34 l -4,32 -1,-32 c -2,-25 4,-35 24,-46 l 25,-13 -41,-38 c -23,-21 -65,-49 -94,-62 -28,-13 -44,-24 -36,-24 25,0 112,55 149,94 38,39 61,46 62,19 0,-10 9,7 20,37 11,30 18,58 16,64 -2,5 -9,-10 -16,-33 z"
         id="path3271"
         style="fill:#ffffff" />
      <path
         d="m 7002,4900 c 0,-19 2,-27 5,-17 2,9 2,25 0,35 -3,9 -5,1 -5,-18 z"
         id="path3273"
         style="fill:#ffffff" />
      <path
         d="m 6328,4888 c -5,-15 -113,-24 -122,-9 -9,14 -71,14 -94,0 -16,-10 -17,-20 -6,-134 7,-68 17,-149 24,-180 29,-140 107,-311 193,-423 80,-104 230,-232 319,-273 l 26,-11 -5,-162 c -2,-88 -6,-166 -8,-173 -2,-6 -19,-13 -37,-16 l -33,-4 33,-1 32,-2 2,-177 c 1,-106 4,-139 5,-81 4,92 5,96 28,102 39,10 81,53 104,107 60,139 80,318 46,420 -13,38 -34,69 -75,110 -32,32 -60,55 -63,52 -9,-8 -105,51 -172,104 -110,90 -204,231 -254,383 -22,68 -51,239 -51,301 0,34 2,36 33,37 42,2 87,18 87,32 0,14 -7,13 -12,-2 z"
         id="path3275"
         style="fill:#ffffff" />
      <path
         d="m 5985,4830 c -64,-32 -114,-73 -157,-130 -27,-35 -118,-213 -118,-228 1,-4 17,24 37,62 l 35,70 54,-60 c 32,-36 54,-69 54,-84 1,-19 5,-14 16,20 17,55 18,75 1,38 l -12,-27 -54,60 -54,61 17,34 c 20,43 98,127 142,155 18,11 57,29 86,39 29,11 44,19 33,19 -11,0 -47,-13 -80,-29 z"
         id="path3277"
         style="fill:#ffffff" />
      <path
         d="m 6992,4840 c 0,-14 2,-19 5,-12 2,6 2,18 0,25 -3,6 -5,1 -5,-13 z"
         id="path3279"
         style="fill:#ffffff" />
      <path
         d="m 6251,4824 c 0,-11 3,-14 6,-6 3,7 2,16 -1,19 -3,4 -6,-2 -5,-13 z"
         id="path3281"
         style="fill:#ffffff" />
      <path
         d="m 1873,4735 c 0,-44 2,-61 4,-37 2,23 2,59 0,80 -2,20 -4,1 -4,-43 z"
         id="path3283"
         style="fill:#ffffff" />
      <path
         d="m 6982,4790 c 0,-14 2,-19 5,-12 2,6 2,18 0,25 -3,6 -5,1 -5,-13 z"
         id="path3285"
         style="fill:#ffffff" />
      <path
         d="m 6271,4780 c 22,-34 76,-60 124,-59 25,1 30,3 15,6 -14,2 -40,6 -59,9 -20,3 -47,19 -65,37 -24,26 -27,27 -15,7 z"
         id="path3287"
         style="fill:#ffffff" />
      <path
         d="m 6616,4704 c -10,-31 -16,-58 -14,-60 3,-2 12,21 22,52 10,31 16,58 14,60 -3,2 -12,-21 -22,-52 z"
         id="path3289"
         style="fill:#ffffff" />
      <path
         d="m 6962,4708 c -7,-28 -11,-53 -8,-55 2,-2 9,19 16,47 7,28 10,53 8,55 -3,3 -10,-18 -16,-47 z"
         id="path3291"
         style="fill:#ffffff" />
      <path
         d="m 5951,4649 c -6,-18 -9,-34 -7,-36 2,-2 9,10 15,28 6,18 9,34 7,36 -2,2 -9,-10 -15,-28 z"
         id="path3293"
         style="fill:#ffffff" />
      <path
         d="m 2202,4630 c 0,-14 2,-19 5,-12 2,6 2,18 0,25 -3,6 -5,1 -5,-13 z"
         id="path3295"
         style="fill:#ffffff" />
      <path
         d="m 6941,4624 c 0,-11 3,-14 6,-6 3,7 2,16 -1,19 -3,4 -6,-2 -5,-13 z"
         id="path3297"
         style="fill:#ffffff" />
      <path
         d="m 6592,4600 c 0,-19 2,-27 5,-17 2,9 2,25 0,35 -3,9 -5,1 -5,-18 z"
         id="path3299"
         style="fill:#ffffff" />
      <path
         d="m 6915,4551 c -9,-31 -53,-80 -86,-96 -15,-8 -47,-16 -71,-17 -37,-1 -38,-2 -10,-5 17,-2 32,-9 32,-14 0,-6 6,-4 14,3 8,7 32,24 54,37 37,22 91,96 79,107 -3,3 -8,-4 -12,-15 z"
         id="path3301"
         style="fill:#ffffff" />
      <path
         d="m 6657,4473 c 18,-18 38,-33 45,-33 7,0 4,6 -7,12 -11,6 -31,20 -45,32 -14,11 -11,6 7,-11 z"
         id="path3303"
         style="fill:#ffffff" />
      <path
         d="m 5696,4445 c -9,-26 -7,-32 5,-12 6,10 9,21 6,23 -2,3 -7,-2 -11,-11 z"
         id="path3305"
         style="fill:#ffffff" />
      <path
         d="m 5881,4414 c 0,-11 3,-14 6,-6 3,7 2,16 -1,19 -3,4 -6,-2 -5,-13 z"
         id="path3307"
         style="fill:#ffffff" />
      <path
         d="m 6771,4384 c 0,-11 3,-14 6,-6 3,7 2,16 -1,19 -3,4 -6,-2 -5,-13 z"
         id="path3309"
         style="fill:#ffffff" />
      <path
         d="m 5872,4370 c 0,-14 2,-19 5,-12 2,6 2,18 0,25 -3,6 -5,1 -5,-13 z"
         id="path3311"
         style="fill:#ffffff" />
      <path
         d="m 5671,4364 c 0,-11 3,-14 6,-6 3,7 2,16 -1,19 -3,4 -6,-2 -5,-13 z"
         id="path3313"
         style="fill:#ffffff" />
      <path
         d="m 6756,4324 c -4,-20 -5,-38 -3,-40 3,-3 8,11 11,32 4,20 5,38 3,40 -3,3 -8,-11 -11,-32 z"
         id="path3315"
         style="fill:#ffffff" />
      <path
         d="m 5663,4295 c 0,-27 2,-38 4,-22 2,15 2,37 0,50 -2,12 -4,0 -4,-28 z"
         id="path3317"
         style="fill:#ffffff" />
      <path
         d="m 5861,4324 c 0,-11 3,-14 6,-6 3,7 2,16 -1,19 -3,4 -6,-2 -5,-13 z"
         id="path3319"
         style="fill:#ffffff" />
      <path
         d="m 5852,4270 c 0,-14 2,-19 5,-12 2,6 2,18 0,25 -3,6 -5,1 -5,-13 z"
         id="path3321"
         style="fill:#ffffff" />
      <path
         d="m 4997,4259 c -21,-11 -46,-34 -55,-50 l -17,-29 -245,-2 -245,-3 243,-2 242,-3 2,-48 1,-47 4,42 c 3,29 11,48 26,59 15,12 17,15 5,11 -39,-13 -9,31 42,62 51,30 129,29 167,-3 36,-30 74,-107 55,-114 -6,-2 -12,-8 -12,-14 0,-7 5,-6 14,1 11,10 16,5 24,-26 5,-21 10,-31 11,-22 1,9 -5,35 -13,57 -13,37 -13,41 2,45 12,3 11,5 -5,6 -12,0 -24,10 -28,20 -3,11 -22,34 -41,50 -29,26 -43,31 -87,31 -32,-1 -67,-9 -90,-21 z"
         id="path3323"
         style="fill:#ffffff" />
      <path
         d="m 6740,4258 c 0,-7 -3,-30 -6,-50 l -7,-38 174,2 174,2 -168,3 -168,3 7,45 c 3,25 4,45 0,45 -3,0 -6,-6 -6,-12 z"
         id="path3325"
         style="fill:#ffffff" />
      <path
         d="m 4088,4234 c -9,-10 -34,-17 -55,-18 -35,-1 -38,-3 -41,-33 -3,-27 -8,-33 -27,-33 -28,0 -35,-15 -23,-55 7,-26 5,-33 -17,-48 -20,-15 -23,-22 -15,-37 9,-18 5,-19 -57,-23 l -68,-3 73,-2 c 74,-2 81,-7 66,-46 -5,-12 -21,-16 -63,-17 l -56,-2 70,-8 c 94,-10 97,-11 123,-37 12,-12 32,-21 45,-21 l 22,2 -22,4 c -32,6 -61,48 -69,99 -13,91 50,208 94,172 7,-6 11,-17 8,-24 -3,-8 6,-14 27,-16 32,-3 32,-4 32,-58 1,-38 -4,-59 -15,-67 -13,-10 -13,-13 3,-30 9,-11 17,-24 17,-29 0,-5 9,-15 20,-22 11,-7 20,-23 20,-36 0,-26 23,-56 43,-56 6,0 1,7 -11,16 -31,21 -30,64 2,64 15,0 26,7 29,20 5,20 15,20 389,22 l 383,3 -348,2 -348,3 3,28 3,27 334,3 c 261,2 336,-1 343,-10 5,-9 8,-7 8,8 0,11 -7,29 -15,40 -8,10 -15,27 -15,37 0,28 33,17 41,-13 6,-22 7,-23 8,-4 1,27 -23,48 -45,40 -12,-5 -15,-14 -10,-36 7,-39 1,-38 -24,3 -11,17 -20,27 -20,20 0,-6 12,-25 26,-42 l 26,-31 h -312 -311 l -24,28 c -19,20 -23,34 -19,58 4,23 1,33 -10,37 -11,4 -16,19 -16,47 0,29 -4,40 -15,40 -8,0 -22,11 -31,25 -15,23 -18,24 -49,11 -29,-12 -36,-12 -52,0 -24,18 -35,17 -55,-2 z"
         id="path3327"
         style="fill:#ffffff" />
      <path
         d="m 5672,4215 c 0,-16 2,-22 5,-12 2,9 2,23 0,30 -3,6 -5,-1 -5,-18 z"
         id="path3329"
         style="fill:#ffffff" />
      <path
         d="m 808,4202 c -64,-31 -161,-125 -156,-149 2,-11 16,-20 33,-23 33,-6 34,-16 14,-67 -17,-41 -4,-57 56,-72 44,-11 45,-12 45,-51 0,-46 19,-62 62,-50 26,8 28,7 29,-23 1,-30 2,-30 9,8 4,22 14,55 21,73 14,33 13,34 -20,61 -47,38 -40,64 19,71 l 45,5 15,72 15,72 40,-34 c 24,-20 50,-34 65,-33 h 25 l -25,7 c -34,8 -98,60 -116,93 -34,64 -98,79 -176,40 z"
         id="path3331"
         style="fill:#ffffff" />
      <path
         d="m 5842,4205 c 0,-16 2,-22 5,-12 2,9 2,23 0,30 -3,6 -5,-1 -5,-18 z"
         id="path3333"
         style="fill:#ffffff" />
      <path
         d="m 5430,4201 c 0,-22 42,-31 144,-31 74,0 106,-4 109,-12 3,-8 6,-6 6,5 1,15 -11,17 -113,17 -91,0 -118,3 -130,16 -9,8 -16,11 -16,5 z"
         id="path3335"
         style="fill:#ffffff" />
      <path
         d="m 5000,4181 c 21,-6 26,-15 31,-51 l 6,-45 1,41 c 2,44 -11,65 -42,63 -18,-1 -17,-2 4,-8 z"
         id="path3337"
         style="fill:#ffffff" />
      <path
         d="m 5833,4125 c 0,-22 2,-30 4,-17 2,12 2,30 0,40 -3,9 -5,-1 -4,-23 z"
         id="path3339"
         style="fill:#ffffff" />
      <path
         d="m 6722,4135 c 0,-16 2,-22 5,-12 2,9 2,23 0,30 -3,6 -5,-1 -5,-18 z"
         id="path3341"
         style="fill:#ffffff" />
      <path
         d="m 5687,4119 c 4,-13 8,-18 11,-10 2,7 -1,18 -6,23 -8,8 -9,4 -5,-13 z"
         id="path3343"
         style="fill:#ffffff" />
      <path
         d="m 5110,4120 c 0,-5 5,-10 11,-10 5,0 7,5 4,10 -3,6 -8,10 -11,10 -2,0 -4,-4 -4,-10 z"
         id="path3345"
         style="fill:#ffffff" />
      <path
         d="m 5170,4128 c 0,-3 7,-19 15,-34 8,-16 15,-22 15,-14 -1,8 -7,24 -15,34 -8,11 -15,17 -15,14 z"
         id="path3347"
         style="fill:#ffffff" />
      <path
         d="m 6712,4075 c 0,-16 2,-22 5,-12 2,9 2,23 0,30 -3,6 -5,-1 -5,-18 z"
         id="path3349"
         style="fill:#ffffff" />
      <path
         d="m 5701,4074 c 0,-11 3,-14 6,-6 3,7 2,16 -1,19 -3,4 -6,-2 -5,-13 z"
         id="path3351"
         style="fill:#ffffff" />
      <path
         d="m 5040,4073 c 0,-17 33,-41 65,-47 29,-6 29,-6 -4,7 -18,7 -39,21 -47,32 -8,10 -14,14 -14,8 z"
         id="path3353"
         style="fill:#ffffff" />
      <path
         d="m 1133,4032 c 0,-14 10,-42 23,-61 13,-20 24,-32 24,-27 0,4 -9,21 -21,37 -12,17 -18,37 -14,48 3,11 2,22 -2,24 -4,3 -9,-7 -10,-21 z"
         id="path3355"
         style="fill:#ffffff" />
      <path
         d="m 5824,3900 c 0,-91 2,-128 3,-82 2,45 2,119 0,165 -1,45 -3,8 -3,-83 z"
         id="path3357"
         style="fill:#ffffff" />
      <path
         d="m 5246,4043 c 5,-5 12,-12 16,-18 4,-6 8,-2 8,8 0,9 -7,17 -17,17 -9,0 -12,-3 -7,-7 z"
         id="path3359"
         style="fill:#ffffff" />
      <path
         d="m 5711,4034 c 0,-11 3,-14 6,-6 3,7 2,16 -1,19 -3,4 -6,-2 -5,-13 z"
         id="path3361"
         style="fill:#ffffff" />
      <path
         d="m 1030,4024 c 0,-8 5,-12 10,-9 6,3 10,10 10,16 0,5 -4,9 -10,9 -5,0 -10,-7 -10,-16 z"
         id="path3363"
         style="fill:#ffffff" />
      <path
         d="m 3990,4029 c 0,-5 5,-7 10,-4 6,3 10,8 10,11 0,2 -4,4 -10,4 -5,0 -10,-5 -10,-11 z"
         id="path3365"
         style="fill:#ffffff" />
      <path
         d="m 4020,4019 c -6,-11 -10,-25 -8,-30 2,-5 8,4 15,21 13,34 9,40 -7,9 z"
         id="path3367"
         style="fill:#ffffff" />
      <path
         d="m 5148,4033 c 7,-3 16,-2 19,1 4,3 -2,6 -13,5 -11,0 -14,-3 -6,-6 z"
         id="path3369"
         style="fill:#ffffff" />
      <path
         d="m 4065,4020 c 3,-5 8,-10 11,-10 2,0 4,5 4,10 0,6 -5,10 -11,10 -5,0 -7,-4 -4,-10 z"
         id="path3371"
         style="fill:#ffffff" />
      <path
         d="m 5261,3988 c -1,-14 -2,-32 -4,-40 -2,-7 1,-3 7,10 9,20 17,22 79,22 75,0 95,-7 146,-54 31,-27 33,-28 19,-6 -28,46 -85,70 -165,70 -48,0 -73,4 -76,13 -3,6 -6,0 -6,-15 z"
         id="path3373"
         style="fill:#ffffff" />
      <path
         d="m 5721,3994 c 0,-11 3,-14 6,-6 3,7 2,16 -1,19 -3,4 -6,-2 -5,-13 z"
         id="path3375"
         style="fill:#ffffff" />
      <path
         d="m 5031,3980 c 0,-20 23,-49 56,-72 31,-20 137,-26 148,-8 3,6 42,10 85,10 73,0 82,-2 110,-27 20,-19 33,-41 37,-67 l 6,-38 -24,15 c -27,18 -162,57 -195,57 -12,0 -25,6 -27,13 -3,6 -6,4 -6,-7 -1,-25 -71,-116 -89,-116 -7,0 -40,25 -73,56 -42,41 -58,63 -55,78 2,11 1,15 -1,9 -2,-7 -23,-18 -46,-24 -86,-23 -199,-72 -242,-105 -45,-34 -46,-34 -149,-34 -92,0 -105,2 -122,21 -10,11 -28,26 -39,32 -26,15 -168,26 -154,12 5,-5 36,-8 67,-7 47,2 64,-1 92,-20 36,-25 85,-109 96,-165 l 7,-33 h -61 c -49,0 -61,3 -65,18 -4,16 -5,16 -6,0 -1,-17 -20,-18 -252,-18 -246,0 -251,0 -246,20 3,11 1,18 -4,14 -5,-3 -9,-12 -9,-20 0,-10 -14,-14 -55,-14 -37,0 -55,4 -55,13 0,9 -2,9 -8,0 -4,-6 -30,-13 -57,-16 -28,-2 387,-4 920,-5 924,-2 972,-3 1011,-21 48,-22 94,-75 111,-128 7,-22 12,-29 12,-18 1,26 -36,96 -60,113 -15,10 -19,26 -19,71 0,61 -28,120 -60,128 -10,3 -9,1 3,-7 27,-18 47,-65 47,-116 0,-40 -2,-45 -17,-39 -10,4 -25,9 -33,12 -18,5 -84,157 -70,161 6,2 9,31 8,65 l -2,62 -3,-57 c -3,-40 -8,-58 -17,-58 -19,0 -46,44 -46,76 0,41 -30,93 -62,110 -30,16 -77,15 -244,-2 -56,-5 -63,-4 -93,22 -18,15 -37,37 -41,48 -5,13 -9,15 -9,6 z m -389,-345 -24,-75 h -49 c -40,0 -49,3 -49,18 0,9 -11,43 -24,75 l -24,57 h 97 97 z"
         id="path3377"
         style="fill:#ffffff" />
      <path
         d="m 3733,3958 c -32,-23 -73,-84 -73,-109 0,-8 9,4 19,26 18,40 48,73 86,93 11,6 15,12 10,12 -6,0 -25,-10 -42,-22 z"
         id="path3379"
         style="fill:#ffffff" />
      <path
         d="m 5731,3954 c 0,-11 3,-14 6,-6 3,7 2,16 -1,19 -3,4 -6,-2 -5,-13 z"
         id="path3381"
         style="fill:#ffffff" />
      <path
         d="m 1181,3914 c -1,-24 -25,-48 -61,-63 -17,-7 -20,-10 -8,-10 28,-1 81,52 75,74 -4,19 -5,19 -6,-1 z"
         id="path3383"
         style="fill:#ffffff" />
      <path
         d="m 5741,3914 c 0,-11 3,-14 6,-6 3,7 2,16 -1,19 -3,4 -6,-2 -5,-13 z"
         id="path3385"
         style="fill:#ffffff" />
      <path
         d="m 3759,3883 -24,-28 30,25 c 17,14 32,26 34,28 2,1 0,2 -6,2 -5,0 -20,-12 -34,-27 z"
         id="path3387"
         style="fill:#ffffff" />
      <path
         d="m 5521,3885 c 1,-19 18,-51 18,-35 0,8 -4,22 -9,30 -5,8 -9,11 -9,5 z"
         id="path3389"
         style="fill:#ffffff" />
      <path
         d="m 5761,3850 c 0,-8 4,-24 9,-35 5,-13 9,-14 9,-5 0,8 -4,24 -9,35 -5,13 -9,14 -9,5 z"
         id="path3391"
         style="fill:#ffffff" />
      <path
         d="m 3726,3834 c -3,-9 -6,-37 -6,-64 0,-45 -2,-49 -27,-53 -16,-2 0,-5 35,-6 42,-1 62,-5 62,-13 0,-7 10,2 23,19 30,43 67,63 115,63 33,0 50,-8 87,-40 26,-22 56,-40 68,-39 18,1 17,2 -7,9 -16,5 -42,22 -58,37 -26,25 -27,28 -11,35 10,3 -14,7 -52,7 -60,1 -76,-3 -108,-24 -20,-14 -37,-30 -37,-35 0,-6 -19,-10 -41,-10 h -41 l 4,65 c 2,36 3,65 2,65 -1,0 -5,-7 -8,-16 z"
         id="path3393"
         style="fill:#ffffff" />
      <path
         d="m 1055,3833 c 11,-3 26,-12 34,-21 13,-16 13,-16 7,1 -3,10 -6,21 -6,23 0,2 -12,3 -27,3 -21,-1 -23,-2 -8,-6 z"
         id="path3395"
         style="fill:#ffffff" />
      <path
         d="m 4038,3817 c -3,-19 -2,-25 4,-19 6,6 8,18 6,28 -3,14 -5,12 -10,-9 z"
         id="path3397"
         style="fill:#ffffff" />
      <path
         d="m 3650,3772 c 0,-57 0,-58 -35,-71 -36,-13 -66,-54 -64,-88 0,-10 5,-4 10,14 10,35 52,73 80,73 17,0 19,8 19,65 0,36 -2,65 -5,65 -3,0 -5,-26 -5,-58 z"
         id="path3399"
         style="fill:#ffffff" />
      <path
         d="m 1100,3785 c 0,-5 5,-17 10,-25 5,-8 10,-10 10,-5 0,6 -5,17 -10,25 -5,8 -10,11 -10,5 z"
         id="path3401"
         style="fill:#ffffff" />
      <path
         d="m 5763,3762 c -13,-14 -23,-29 -23,-34 0,-5 12,5 26,22 32,37 29,48 -3,12 z"
         id="path3403"
         style="fill:#ffffff" />
      <path
         d="m 4215,3748 c -22,-12 -56,-27 -75,-34 -19,-7 -27,-13 -17,-14 18,0 137,56 137,65 0,7 0,7 -45,-17 z"
         id="path3405"
         style="fill:#ffffff" />
      <path
         d="m 975,3744 c -27,-9 -58,-16 -67,-17 -9,-1 -15,-4 -12,-8 2,-4 -7,-14 -21,-23 -55,-36 -207,-311 -204,-369 0,-7 4,-2 9,11 9,22 11,22 158,-52 l 148,-74 29,72 c 41,103 77,177 82,172 2,-2 -5,-23 -17,-46 -44,-85 -109,-267 -125,-349 -13,-60 -16,-114 -13,-187 4,-94 8,-110 42,-178 25,-52 61,-100 115,-157 l 80,-83 -20,-27 c -27,-38 -118,-119 -134,-119 -26,0 -166,122 -221,193 -65,83 -108,163 -140,262 -13,39 -23,63 -24,54 0,-23 33,-116 63,-174 15,-32 24,-62 21,-80 -3,-23 -2,-25 4,-8 6,20 13,14 69,-57 34,-44 96,-105 137,-137 45,-35 73,-64 70,-72 -5,-16 30,5 95,57 42,34 121,143 121,166 -1,6 -8,-2 -16,-17 l -15,-28 -39,31 c -39,31 -93,90 -88,95 2,2 46,-1 98,-7 97,-9 101,-12 138,-64 7,-11 4,-3 -6,17 l -19,36 28,108 c 47,181 59,273 55,450 -3,132 -8,177 -29,256 -49,188 -142,329 -234,357 -49,15 -55,14 -118,-4 z"
         id="path3407"
         style="fill:#ffffff" />
      <path
         d="m 5831,3704 c 0,-11 3,-14 6,-6 3,7 2,16 -1,19 -3,4 -6,-2 -5,-13 z"
         id="path3409"
         style="fill:#ffffff" />
      <path
         d="m 5568,3703 c 7,-3 16,-2 19,1 4,3 -2,6 -13,5 -11,0 -14,-3 -6,-6 z"
         id="path3411"
         style="fill:#ffffff" />
      <path
         d="m 5731,3694 c 0,-11 3,-14 6,-6 3,7 2,16 -1,19 -3,4 -6,-2 -5,-13 z"
         id="path3413"
         style="fill:#ffffff" />
      <path
         d="m 5683,3648 c 6,-48 36,-92 63,-95 14,-2 13,0 -4,7 -27,11 -56,73 -49,107 2,13 0,23 -6,23 -6,0 -7,-17 -4,-42 z"
         id="path3415"
         style="fill:#ffffff" />
      <path
         d="m 5843,3616 c 1,-36 5,-66 9,-66 4,0 9,-10 11,-22 2,-13 2,6 0,42 l -5,65 21,-27 c 27,-33 151,-95 206,-103 32,-4 27,-1 -20,13 -104,32 -158,66 -198,125 l -26,38 z"
         id="path3417"
         style="fill:#ffffff" />
      <path
         d="m 3761,3604 c 0,-11 3,-14 6,-6 3,7 2,16 -1,19 -3,4 -6,-2 -5,-13 z"
         id="path3419"
         style="fill:#ffffff" />
      <path
         d="m 3542,3544 c -1,-34 -8,-56 -19,-65 -24,-20 -53,-89 -53,-126 0,-18 -3,-33 -8,-33 -4,0 -13,-10 -21,-22 l -14,-23 24,21 c 13,12 34,27 46,33 16,8 329,11 1133,11 804,0 1117,-3 1133,-11 12,-6 32,-21 45,-33 18,-16 22,-17 17,-4 -10,24 -71,58 -106,58 -20,0 -31,6 -35,18 -16,52 -40,83 -79,102 -41,20 -57,20 -996,18 -525,-1 -910,-4 -856,-5 l 97,-4 v -64 -65 h -59 c -54,0 -60,2 -64,23 l -4,22 -2,-22 c -1,-22 -5,-23 -86,-23 -61,0 -85,3 -85,13 0,8 -3,9 -8,1 -4,-6 -19,-14 -34,-18 -24,-5 -28,-3 -28,14 0,60 58,140 125,171 22,10 33,19 25,19 -8,0 -29,-9 -47,-20 l -32,-19 -4,42 c -3,41 -4,40 -5,-9 z m 849,-91 2,-28 4,28 c 4,26 6,27 69,27 h 64 l 2,-32 1,-33 4,33 c 4,28 8,32 34,32 32,0 33,-5 23,-84 -5,-36 -11,-46 -25,-46 -11,0 -19,6 -20,13 0,10 -2,10 -6,0 -3,-9 -29,-13 -79,-13 -74,0 -74,0 -75,28 l -2,27 -4,-27 -4,-28 h -260 -259 v 65 65 h 265 265 z m 419,-38 c -7,-59 -7,-59 -9,-13 -1,40 7,85 14,76 1,-2 -2,-30 -5,-63 z m 669,-50 c 0,-11 -7,5 -14,35 -18,72 -17,100 1,35 7,-27 13,-59 13,-70 z m 181,16 c -1,-42 -13,-27 -25,29 -7,31 -6,33 9,21 9,-8 16,-28 16,-50 z"
         id="path3421"
         style="fill:#ffffff" />
      <path
         d="m 5783,3543 c 9,-2 25,-2 35,0 9,3 1,5 -18,5 -19,0 -27,-2 -17,-5 z"
         id="path3423"
         style="fill:#ffffff" />
      <path
         d="m 6143,3493 c 9,-2 25,-2 35,0 9,3 1,5 -18,5 -19,0 -27,-2 -17,-5 z"
         id="path3425"
         style="fill:#ffffff" />
      <path
         d="m 6518,3493 c 12,-2 32,-2 45,0 12,2 2,4 -23,4 -25,0 -35,-2 -22,-4 z"
         id="path3427"
         style="fill:#ffffff" />
      <path
         d="m 5872,3465 c 0,-16 2,-22 5,-12 2,9 2,23 0,30 -3,6 -5,-1 -5,-18 z"
         id="path3429"
         style="fill:#ffffff" />
      <path
         d="m 6272,3483 c 37,-2 100,-2 140,0 40,1 10,3 -67,3 -77,0 -110,-1 -73,-3 z"
         id="path3431"
         style="fill:#ffffff" />
      <path
         d="m 3589,3441 c -22,-21 -39,-45 -39,-52 0,-8 9,1 20,19 11,18 34,41 52,52 18,11 27,20 19,20 -7,0 -31,-17 -52,-39 z"
         id="path3433"
         style="fill:#ffffff" />
      <path
         d="m 3732,3440 c 0,-19 2,-27 5,-17 2,9 2,25 0,35 -3,9 -5,1 -5,-18 z"
         id="path3435"
         style="fill:#ffffff" />
      <path
         d="m 5882,3410 c 0,-14 4,-36 8,-50 6,-20 8,-21 8,-5 0,11 -4,34 -8,50 -7,27 -8,27 -8,5 z"
         id="path3437"
         style="fill:#ffffff" />
      <path
         d="m 6127,3370 c 11,-61 23,-90 17,-40 -4,25 -10,52 -15,60 -5,9 -6,2 -2,-20 z"
         id="path3439"
         style="fill:#ffffff" />
      <path
         d="m 5902,3315 c 0,-21 25,-107 27,-90 0,6 -6,33 -13,60 -8,28 -14,41 -14,30 z"
         id="path3441"
         style="fill:#ffffff" />
      <path
         d="m 651,3264 c 0,-11 3,-14 6,-6 3,7 2,16 -1,19 -3,4 -6,-2 -5,-13 z"
         id="path3443"
         style="fill:#ffffff" />
      <path
         d="m 6152,3260 c 0,-14 2,-19 5,-12 2,6 2,18 0,25 -3,6 -5,1 -5,-13 z"
         id="path3445"
         style="fill:#ffffff" />
      <path
         d="m 642,3220 c 0,-14 2,-19 5,-12 2,6 2,18 0,25 -3,6 -5,1 -5,-13 z"
         id="path3447"
         style="fill:#ffffff" />
      <path
         d="m 3414,3145 c 0,-55 1,-76 3,-47 2,29 2,74 0,100 -2,26 -3,2 -3,-53 z"
         id="path3449"
         style="fill:#ffffff" />
      <path
         d="m 5844,3150 c 0,-52 1,-74 3,-47 2,26 2,68 0,95 -2,26 -3,4 -3,-48 z"
         id="path3451"
         style="fill:#ffffff" />
      <path
         d="m 6161,3214 c 0,-11 3,-14 6,-6 3,7 2,16 -1,19 -3,4 -6,-2 -5,-13 z"
         id="path3453"
         style="fill:#ffffff" />
      <path
         d="m 5931,3204 c -1,-5 10,-41 23,-80 14,-38 25,-64 25,-58 1,5 -10,41 -23,80 -14,38 -25,64 -25,58 z"
         id="path3455"
         style="fill:#ffffff" />
      <path
         d="m 632,3165 c 0,-16 2,-22 5,-12 2,9 2,23 0,30 -3,6 -5,-1 -5,-18 z"
         id="path3457"
         style="fill:#ffffff" />
      <path
         d="m 6171,3181 c -1,-21 51,-214 60,-225 5,-5 -5,42 -22,105 -35,132 -37,139 -38,120 z"
         id="path3459"
         style="fill:#ffffff" />
      <path
         d="m 2672,3142 c -40,-12 -78,-59 -102,-124 -22,-62 -59,-122 -98,-164 -27,-28 -42,-59 -42,-85 0,-18 3,-20 12,-11 20,20 28,14 29,-20 2,-31 2,-31 6,-5 2,15 13,32 24,37 20,11 21,10 22,-30 0,-23 0,-23 4,-2 3,17 12,22 36,23 25,1 27,3 9,6 -23,4 -23,7 -17,66 11,92 29,143 61,171 16,14 31,26 34,26 3,0 11,-14 19,-30 16,-37 73,-84 150,-125 60,-32 70,-54 34,-70 -27,-12 -38,-55 -31,-127 6,-54 32,-89 67,-87 13,0 13,2 -2,8 -14,5 -6,11 35,24 30,9 73,33 96,53 57,48 56,73 -6,133 -67,63 -74,79 -66,151 8,78 -19,139 -74,166 -39,19 -159,29 -200,16 z"
         id="path3461"
         style="fill:#ffffff" />
      <path
         d="m 4010,3125 c -19,-22 -8,-25 13,-3 9,10 13,18 8,18 -5,0 -14,-7 -21,-15 z"
         id="path3463"
         style="fill:#ffffff" />
      <path
         d="m 4085,3128 c 11,-6 34,-24 51,-40 l 30,-28 14,24 c 7,14 25,30 39,35 18,7 21,10 8,10 -10,1 -29,-11 -42,-25 l -25,-26 -35,31 c -20,17 -41,31 -48,31 -7,0 -3,-6 8,-12 z"
         id="path3465"
         style="fill:#ffffff" />
      <path
         d="m 624,3015 c 0,-66 1,-92 3,-57 2,34 2,88 0,120 -2,31 -3,3 -3,-63 z"
         id="path3467"
         style="fill:#ffffff" />
      <path
         d="m 4273,3114 c 16,-9 35,-30 42,-47 9,-20 14,-25 15,-14 0,21 -52,77 -72,77 -7,-1 0,-8 15,-16 z"
         id="path3469"
         style="fill:#ffffff" />
      <path
         d="m 6658,3103 c -2,-5 0,-39 3,-78 l 6,-70 v 78 c 0,73 -2,87 -9,70 z"
         id="path3471"
         style="fill:#ffffff" />
      <path
         d="m 3987,3071 c -4,-17 -3,-21 5,-13 5,5 8,16 6,23 -3,8 -7,3 -11,-10 z"
         id="path3473"
         style="fill:#ffffff" />
      <path
         d="m 3906,3062 c -2,-4 11,-6 30,-4 19,2 34,6 34,8 0,8 -59,4 -64,-4 z"
         id="path3475"
         style="fill:#ffffff" />
      <path
         d="m 5407,3025 c -17,-21 -41,-38 -58,-42 -39,-8 -54,-36 -39,-73 8,-20 9,-34 1,-48 -15,-29 -14,-57 4,-72 8,-7 12,-17 9,-22 -3,-5 2,-8 11,-6 17,3 28,-10 40,-47 5,-16 8,-17 15,-5 6,8 10,27 10,42 0,41 23,59 62,47 49,-14 101,-11 137,7 40,20 55,9 70,-51 13,-50 27,-58 37,-19 5,19 11,24 26,21 16,-5 17,-3 7,9 -10,12 -7,20 14,42 37,38 34,63 -13,117 -22,25 -40,53 -40,60 0,25 -40,38 -97,31 -49,-6 -58,-4 -85,19 -42,36 -77,33 -111,-10 z"
         id="path3477"
         style="fill:#ffffff" />
      <path
         d="m 3892,3013 c -2,-25 4,-36 25,-50 56,-36 65,-52 54,-85 -6,-17 -11,-38 -10,-47 0,-9 8,10 19,42 10,31 25,69 34,82 17,25 50,33 61,15 3,-5 11,-10 18,-10 18,0 -26,29 -45,30 -10,0 -27,-13 -40,-30 -21,-29 -48,-40 -48,-20 0,5 -13,16 -29,25 -22,11 -31,24 -34,47 l -4,33 z"
         id="path3479"
         style="fill:#ffffff" />
      <path
         d="m 4322,2970 c 0,-14 2,-19 5,-12 2,6 2,18 0,25 -3,6 -5,1 -5,-13 z"
         id="path3481"
         style="fill:#ffffff" />
      <path
         d="m 4123,2973 c 9,-2 23,-2 30,0 6,3 -1,5 -18,5 -16,0 -22,-2 -12,-5 z"
         id="path3483"
         style="fill:#ffffff" />
      <path
         d="m 4180,2922 5,-47 3,39 c 2,21 0,42 -5,47 -4,4 -6,-13 -3,-39 z"
         id="path3485"
         style="fill:#ffffff" />
      <path
         d="m 4358,2940 c 16,-7 22,-18 23,-42 2,-31 2,-32 6,-5 5,32 -11,57 -36,56 -11,0 -9,-3 7,-9 z"
         id="path3487"
         style="fill:#ffffff" />
      <path
         d="m 6668,2943 c -2,-5 -1,-24 3,-43 7,-35 7,-35 6,8 -1,42 -3,48 -9,35 z"
         id="path3489"
         style="fill:#ffffff" />
      <path
         d="m 2590,2901 c 0,-6 5,-13 10,-16 6,-3 10,1 10,9 0,9 -4,16 -10,16 -5,0 -10,-4 -10,-9 z"
         id="path3491"
         style="fill:#ffffff" />
      <path
         d="m 2690,2891 c 0,-6 5,-13 10,-16 6,-3 10,1 10,9 0,9 -4,16 -10,16 -5,0 -10,-4 -10,-9 z"
         id="path3493"
         style="fill:#ffffff" />
      <path
         d="m 4005,2890 c -3,-5 1,-10 9,-10 9,0 16,5 16,10 0,6 -4,10 -9,10 -6,0 -13,-4 -16,-10 z"
         id="path3495"
         style="fill:#ffffff" />
      <path
         d="m 632,2865 c 0,-16 2,-22 5,-12 2,9 2,23 0,30 -3,6 -5,-1 -5,-18 z"
         id="path3497"
         style="fill:#ffffff" />
      <path
         d="m 4030,2865 c -14,-17 -7,-45 12,-44 10,0 10,2 1,6 -19,7 -16,30 5,42 9,6 12,11 6,11 -6,0 -17,-7 -24,-15 z"
         id="path3499"
         style="fill:#ffffff" />
      <path
         d="m 4100,2860 c 0,-5 5,-10 10,-10 6,0 10,5 10,10 0,6 -4,10 -10,10 -5,0 -10,-4 -10,-10 z"
         id="path3501"
         style="fill:#ffffff" />
      <path
         d="m 4173,2830 c 0,-25 2,-35 4,-22 2,12 2,32 0,45 -2,12 -4,2 -4,-23 z"
         id="path3503"
         style="fill:#ffffff" />
      <path
         d="m 4341,2834 c -19,-13 -29,-24 -23,-24 6,0 24,11 39,25 35,31 28,31 -16,-1 z"
         id="path3505"
         style="fill:#ffffff" />
      <path
         d="m 3952,2780 c 0,-19 2,-27 5,-17 2,9 2,25 0,35 -3,9 -5,1 -5,-18 z"
         id="path3507"
         style="fill:#ffffff" />
      <path
         d="m 4253,2803 c 9,-2 17,-12 18,-21 0,-14 2,-14 6,-2 3,8 11,18 17,22 6,4 -5,7 -24,7 -19,-1 -27,-3 -17,-6 z"
         id="path3509"
         style="fill:#ffffff" />
      <path
         d="m 4200,2790 c -8,-5 -10,-10 -5,-10 6,0 17,5 25,10 8,5 11,10 5,10 -5,0 -17,-5 -25,-10 z"
         id="path3511"
         style="fill:#ffffff" />
      <path
         d="m 2608,2749 c 7,-9 10,-23 6,-32 -4,-11 5,-21 28,-33 18,-9 42,-24 53,-33 20,-16 20,-16 2,6 -10,11 -31,26 -47,33 -19,8 -26,17 -23,29 2,10 -4,24 -14,32 -16,13 -17,12 -5,-2 z"
         id="path3513"
         style="fill:#ffffff" />
      <path
         d="m 4243,2753 c -8,-3 -13,-25 -13,-56 -1,-48 -5,-56 -50,-105 -54,-60 -52,-60 -119,0 -30,28 -41,46 -41,68 0,23 4,28 18,24 9,-3 4,2 -13,12 -16,9 -39,24 -49,33 -16,13 -18,13 -11,1 5,-8 17,-21 27,-28 21,-15 24,-52 6,-71 -9,-9 -9,-12 -1,-7 6,3 36,-17 68,-45 l 56,-52 -27,-28 c -15,-16 -31,-29 -34,-29 -4,0 -28,27 -54,60 -42,53 -46,63 -34,77 11,15 11,16 -7,8 -11,-4 -56,-18 -101,-30 -45,-12 -95,-31 -111,-43 -29,-21 -65,-66 -69,-87 -1,-5 -12,-61 -24,-124 -11,-62 -19,-116 -16,-119 3,-3 6,2 6,11 0,21 0,21 39,1 18,-9 59,-18 92,-21 l 61,-6 -6,-31 c -3,-17 -8,-56 -11,-86 l -7,-55 139,1 c 168,2 366,21 410,39 l 33,14 v 76 c 0,73 1,75 23,71 75,-16 94,-15 130,3 l 37,19 2,-47 c 1,-44 2,-44 5,-8 4,38 -22,231 -34,251 -4,6 1,4 11,-4 10,-7 31,-37 47,-65 32,-56 39,-54 10,3 -22,43 -132,152 -176,174 -17,8 -61,26 -100,38 -105,35 -115,43 -115,101 0,35 5,51 18,58 17,11 7,13 -15,4 z m 1,-216 c -24,-34 -50,-62 -56,-62 -6,0 -20,12 -31,27 l -20,27 48,55 47,56 29,-21 28,-20 z m -84,-121 c 0,-3 -4,-8 -10,-11 -5,-3 -10,-1 -10,4 0,6 5,11 10,11 6,0 10,-2 10,-4 z m -5,-105 c 3,-5 1,-12 -5,-16 -5,-3 -10,1 -10,9 0,18 6,21 15,7 z m 0,-110 c 3,-5 1,-12 -5,-16 -5,-3 -10,1 -10,9 0,18 6,21 15,7 z"
         id="path3515"
         style="fill:#ffffff" />
      <path
         d="m 5242,2722 c -41,-13 -72,-26 -69,-28 2,-2 23,3 47,11 55,19 58,19 63,-7 l 4,-23 2,23 c 1,26 28,30 33,5 2,-10 6,-13 9,-8 3,6 1,19 -5,30 -11,20 -11,20 -84,-3 z"
         id="path3517"
         style="fill:#ffffff" />
      <path
         d="m 5731,2723 c -15,-13 -18,-22 -11,-33 8,-12 10,-11 10,8 0,12 6,22 14,22 8,0 17,-10 19,-22 l 4,-23 2,23 c 1,28 10,28 98,-7 40,-16 71,-25 68,-21 -4,7 -167,70 -179,70 -2,0 -13,-8 -25,-17 z"
         id="path3519"
         style="fill:#ffffff" />
      <path
         d="m 2431,2684 c -1,-12 7,-30 17,-41 9,-10 13,-13 9,-7 -5,7 -12,25 -17,41 -7,23 -8,24 -9,7 z"
         id="path3521"
         style="fill:#ffffff" />
      <path
         d="m 5355,2692 c 4,-8 11,-26 15,-40 7,-22 8,-23 9,-6 1,11 -6,29 -15,40 -8,10 -12,13 -9,6 z"
         id="path3523"
         style="fill:#ffffff" />
      <path
         d="m 5118,2674 c -39,-21 -35,-28 5,-8 37,19 44,24 31,24 -5,-1 -21,-8 -36,-16 z"
         id="path3525"
         style="fill:#ffffff" />
      <path
         d="m 4068,2673 c 7,-3 16,-2 19,1 4,3 -2,6 -13,5 -11,0 -14,-3 -6,-6 z"
         id="path3527"
         style="fill:#ffffff" />
      <path
         d="m 5671,2654 c 0,-11 3,-14 6,-6 3,7 2,16 -1,19 -3,4 -6,-2 -5,-13 z"
         id="path3529"
         style="fill:#ffffff" />
      <path
         d="m 5273,2595 c 0,-38 2,-53 4,-32 2,20 2,52 0,70 -2,17 -4,1 -4,-38 z"
         id="path3531"
         style="fill:#ffffff" />
      <path
         d="m 5447,2654 c -13,-13 -7,-24 14,-24 11,0 19,5 17,12 -5,14 -22,21 -31,12 z"
         id="path3533"
         style="fill:#ffffff" />
      <path
         d="m 5597,2654 c -13,-13 -7,-24 14,-24 11,0 19,5 17,12 -5,14 -22,21 -31,12 z"
         id="path3535"
         style="fill:#ffffff" />
      <path
         d="m 5773,2595 c 0,-38 2,-53 4,-32 2,20 2,52 0,70 -2,17 -4,1 -4,-38 z"
         id="path3537"
         style="fill:#ffffff" />
      <path
         d="m 5964,2648 c 58,-39 91,-79 132,-162 25,-50 42,-80 38,-66 -24,88 -103,200 -158,226 -17,8 -22,9 -12,2 z"
         id="path3539"
         style="fill:#ffffff" />
      <path
         d="m 5033,2616 c -21,-19 -46,-49 -56,-68 -16,-30 -16,-30 0,-8 9,14 36,44 60,68 52,50 49,56 -4,8 z"
         id="path3541"
         style="fill:#ffffff" />
      <path
         d="m 5312,2620 c 0,-14 2,-19 5,-12 2,6 2,18 0,25 -3,6 -5,1 -5,-13 z"
         id="path3543"
         style="fill:#ffffff" />
      <path
         d="m 2500,2601 c 14,-11 29,-21 34,-21 29,0 -14,-15 -76,-26 l -73,-12 65,1 c 59,2 65,0 63,-18 -1,-17 1,-17 18,5 25,33 21,47 -21,72 l -35,20 z m 40,-45 c 0,-3 -4,-8 -10,-11 -5,-3 -10,-1 -10,4 0,6 5,11 10,11 6,0 10,-2 10,-4 z"
         id="path3545"
         style="fill:#ffffff" />
      <path
         d="m 2936,2603 c -10,-3 -32,-21 -50,-41 -17,-19 -51,-48 -75,-64 -25,-15 -40,-28 -34,-28 16,0 95,58 125,92 20,23 38,32 80,38 47,7 48,8 13,8 -22,0 -48,-2 -59,-5 z"
         id="path3547"
         style="fill:#ffffff" />
      <path
         d="m 3048,2603 c 6,-2 18,-2 25,0 6,3 1,5 -13,5 -14,0 -19,-2 -12,-5 z"
         id="path3549"
         style="fill:#ffffff" />
      <path
         d="m 5662,2590 c 0,-14 2,-19 5,-12 2,6 2,18 0,25 -3,6 -5,1 -5,-13 z"
         id="path3551"
         style="fill:#ffffff" />
      <path
         d="m 3105,2588 c 41,-22 68,-55 96,-113 16,-33 29,-53 29,-45 0,20 39,-42 56,-88 8,-23 13,-29 14,-17 0,12 -16,45 -35,75 -19,30 -43,68 -52,85 -25,42 -98,115 -114,115 -8,0 -6,-5 6,-12 z"
         id="path3553"
         style="fill:#ffffff" />
      <path
         d="m 5381,2587 c -1,-18 25,-77 35,-77 2,0 -1,10 -7,22 -6,12 -15,33 -20,47 -5,17 -8,20 -8,8 z"
         id="path3555"
         style="fill:#ffffff" />
      <path
         d="m 5632,2529 c -17,-21 -19,-27 -7,-23 15,6 40,43 33,49 -2,1 -13,-11 -26,-26 z"
         id="path3557"
         style="fill:#ffffff" />
      <path
         d="m 2312,2498 c -26,-24 -53,-50 -60,-58 -19,-22 -52,-87 -52,-102 0,-7 11,10 24,37 13,28 35,61 50,74 l 26,25 -4,-30 c -2,-16 -1,-22 1,-14 14,45 39,82 62,95 14,8 20,14 13,15 -7,0 -34,-19 -60,-42 z"
         id="path3559"
         style="fill:#ffffff" />
      <path
         d="m 2681,2514 c 0,-11 3,-14 6,-6 3,7 2,16 -1,19 -3,4 -6,-2 -5,-13 z"
         id="path3561"
         style="fill:#ffffff" />
      <path
         d="m 713,2465 c 0,-33 2,-45 4,-27 2,18 2,45 0,60 -2,15 -4,0 -4,-33 z"
         id="path3563"
         style="fill:#ffffff" />
      <path
         d="m 5281,2512 c -1,-14 27,-72 35,-72 2,0 -2,12 -9,28 -8,15 -17,34 -20,42 -4,10 -6,11 -6,2 z"
         id="path3565"
         style="fill:#ffffff" />
      <path
         d="m 5430,2507 c 12,-13 81,-57 90,-57 6,0 10,-6 11,-12 0,-7 5,-3 11,10 6,12 14,22 18,22 3,0 15,7 26,16 10,9 1,6 -20,-6 l -39,-21 -51,27 c -28,15 -49,24 -46,21 z"
         id="path3567"
         style="fill:#ffffff" />
      <path
         d="m 1320,2480 c 6,-11 13,-20 16,-20 2,0 0,9 -6,20 -6,11 -13,20 -16,20 -2,0 0,-9 6,-20 z"
         id="path3569"
         style="fill:#ffffff" />
      <path
         d="m 2467,2443 c -42,-70 -69,-123 -63,-123 2,0 20,29 40,65 20,36 43,77 52,90 9,14 14,25 11,25 -3,0 -21,-26 -40,-57 z"
         id="path3571"
         style="fill:#ffffff" />
      <path
         d="m 2670,2468 c 0,-14 8,-18 33,-17 27,2 28,2 7,6 -14,3 -28,10 -32,17 -5,7 -8,5 -8,-6 z"
         id="path3573"
         style="fill:#ffffff" />
      <path
         d="m 4912,2418 c -22,-60 -40,-142 -22,-98 l 11,24 22,-27 c 30,-36 102,-67 160,-67 h 48 l -61,-51 c -64,-53 -158,-149 -173,-175 -5,-8 28,23 72,69 45,46 118,111 162,143 211,152 224,164 198,188 -9,8 -10,8 -4,-2 10,-19 -27,-56 -114,-113 -64,-43 -80,-49 -125,-49 -63,0 -123,27 -159,69 l -27,32 20,51 c 11,29 18,54 16,56 -2,2 -13,-21 -24,-50 z"
         id="path3575"
         style="fill:#ffffff" />
      <path
         d="m 5725,2436 c -18,-33 -18,-36 -2,-54 10,-11 77,-62 149,-113 78,-56 163,-128 211,-179 45,-47 72,-71 60,-55 -24,35 -154,160 -198,193 l -30,21 50,1 c 59,1 122,27 157,65 14,15 28,23 31,19 2,-5 13,-44 23,-86 9,-43 20,-76 22,-73 5,5 -37,184 -49,205 -7,12 -8,10 -9,-7 0,-33 -45,-80 -95,-99 -74,-28 -139,-17 -216,38 -35,26 -75,58 -88,72 -23,24 -23,26 -7,51 10,15 16,29 13,31 -2,2 -12,-11 -22,-30 z"
         id="path3577"
         style="fill:#ffffff" />
      <path
         d="m 3637,2428 c -30,-40 -57,-93 -57,-110 0,-7 10,7 21,32 11,25 34,60 52,78 17,17 26,32 19,32 -6,0 -22,-15 -35,-32 z"
         id="path3579"
         style="fill:#ffffff" />
      <path
         d="m 1342,2445 c 3,-5 92,-155 198,-332 106,-178 203,-349 216,-380 13,-32 24,-51 24,-43 0,8 -11,38 -24,66 -25,55 -392,672 -409,689 -7,7 -8,7 -5,0 z"
         id="path3581"
         style="fill:#ffffff" />
      <path
         d="m 2662,2420 c 0,-14 2,-19 5,-12 2,6 2,18 0,25 -3,6 -5,1 -5,-13 z"
         id="path3583"
         style="fill:#ffffff" />
      <path
         d="m 5500,2414 c -6,-14 -15,-35 -21,-47 -8,-14 -8,-19 -1,-12 13,12 45,85 37,85 -3,0 -10,-12 -15,-26 z"
         id="path3585"
         style="fill:#ffffff" />
      <path
         d="m 3021,2404 c 0,-11 3,-14 6,-6 3,7 2,16 -1,19 -3,4 -6,-2 -5,-13 z"
         id="path3587"
         style="fill:#ffffff" />
      <path
         d="m 5541,2415 c 0,-5 11,-30 24,-55 13,-25 24,-40 24,-35 0,6 -11,30 -24,55 -13,25 -24,41 -24,35 z"
         id="path3589"
         style="fill:#ffffff" />
      <path
         d="m 3231,2394 c 0,-11 3,-14 6,-6 3,7 2,16 -1,19 -3,4 -6,-2 -5,-13 z"
         id="path3591"
         style="fill:#ffffff" />
      <path
         d="m 722,2380 c 0,-14 2,-19 5,-12 2,6 2,18 0,25 -3,6 -5,1 -5,-13 z"
         id="path3593"
         style="fill:#ffffff" />
      <path
         d="m 2651,2374 c 0,-11 3,-14 6,-6 3,7 2,16 -1,19 -3,4 -6,-2 -5,-13 z"
         id="path3595"
         style="fill:#ffffff" />
      <path
         d="m 3030,2257 c 3,-81 5,-96 8,-52 2,33 9,63 15,67 9,6 9,8 0,8 -8,0 -13,15 -13,39 0,22 -3,42 -7,44 -5,3 -6,-45 -3,-106 z"
         id="path3597"
         style="fill:#ffffff" />
      <path
         d="m 3240,2337 c 0,-19 -6,-27 -22,-30 -23,-4 -23,-4 -1,-6 13,-1 25,-11 32,-28 8,-23 9,-18 4,27 -6,60 -13,79 -13,37 z"
         id="path3599"
         style="fill:#ffffff" />
      <path
         d="m 736,2330 c 3,-14 10,-72 14,-130 l 7,-105 1,79 2,78 43,-58 c 56,-77 224,-251 321,-334 66,-57 76,-70 77,-100 1,-33 2,-33 8,-8 l 6,28 35,-28 35,-27 -50,-6 -50,-6 65,-1 65,-2 -35,28 c -85,66 -275,239 -345,315 -105,111 -152,176 -182,244 -13,32 -21,47 -17,33 z"
         id="path3601"
         style="fill:#ffffff" />
      <path
         d="m 2641,2324 c 0,-11 3,-14 6,-6 3,7 2,16 -1,19 -3,4 -6,-2 -5,-13 z"
         id="path3603"
         style="fill:#ffffff" />
      <path
         d="m 5451,2309 c -6,-18 -9,-34 -7,-36 2,-2 9,10 15,28 6,18 9,34 7,36 -2,2 -9,-10 -15,-28 z"
         id="path3605"
         style="fill:#ffffff" />
      <path
         d="m 2192,1938 -2,-388 h -33 c -18,0 -43,-7 -55,-16 -19,-13 -22,-23 -20,-77 l 2,-62 3,60 c 5,74 17,85 94,85 51,0 57,-2 63,-22 3,-13 44,-77 91,-143 l 86,-120 -151,-3 c -104,-2 -157,1 -166,9 -9,7 -15,35 -16,73 l -2,61 -3,-59 c -6,-94 -2,-96 188,-96 h 159 l 55,-74 56,-74 -58,-116 -58,-116 h -149 c -141,0 -152,-1 -192,-25 -41,-24 -93,-90 -80,-102 3,-4 6,-1 6,5 0,17 60,81 91,98 21,10 66,14 174,14 h 145 l -20,-40 -20,-40 -108,-2 -107,-2 103,-3 c 56,-2 102,-6 102,-9 0,-2 -18,-40 -40,-84 -22,-44 -40,-92 -40,-106 0,-17 -26,-63 -71,-127 -55,-79 -69,-106 -67,-130 4,-43 46,-71 107,-71 87,0 121,24 234,163 56,69 105,127 109,129 4,2 39,55 78,118 46,73 77,114 88,114 10,0 47,-42 87,-96 39,-53 87,-111 108,-129 20,-17 37,-39 37,-47 0,-21 41,-55 178,-148 110,-74 129,-84 178,-88 71,-6 133,17 158,59 21,36 15,71 -16,91 -13,9 -60,44 -105,80 -60,48 -79,69 -72,79 18,28 8,67 -31,128 -22,34 -40,64 -40,66 0,3 119,5 265,5 241,0 265,-2 265,-17 0,-9 3,-14 6,-11 3,3 1,21 -5,39 -5,19 -10,26 -10,17 -1,-17 -21,-18 -268,-18 h -268 l -23,40 -23,40 h 281 281 l 10,-22 c 9,-22 9,-22 4,2 -2,14 -5,32 -5,40 0,11 -2,12 -8,2 -7,-9 -72,-12 -292,-10 l -283,3 -93,144 -92,144 26,43 27,44 h 161 c 203,0 194,-7 194,153 0,104 -2,119 -20,137 -11,11 -31,20 -45,20 h -25 l -3,378 -2,377 -3,-377 -2,-378 h -30 c -16,0 -30,1 -30,3 0,1 9,20 20,42 41,81 8,199 -69,251 -40,26 -41,27 -21,41 21,15 60,83 60,105 0,7 -11,-10 -24,-39 -43,-91 -109,-107 -427,-101 -172,2 -219,0 -232,-11 -10,-7 -36,-16 -60,-18 -35,-4 -44,-10 -57,-37 -8,-17 -23,-32 -32,-34 -14,-3 -18,6 -21,50 l -3,53 -2,-57 c -2,-46 -6,-59 -22,-68 -16,-9 -22,-8 -26,5 -5,11 -10,13 -19,5 -10,-8 -16,-7 -24,7 -17,30 -51,-58 -51,-134 0,-49 -3,-63 -15,-63 -13,0 -15,52 -18,388 l -2,387 z m 583,-378 c -3,-5 -12,-10 -20,-10 -8,0 -17,5 -20,10 -4,6 5,10 20,10 15,0 24,-4 20,-10 z m 599,-36 c 13,-12 16,-39 16,-133 0,-78 -4,-121 -12,-129 -8,-8 -60,-12 -169,-12 h -158 l 66,108 c 125,204 104,182 177,182 45,0 69,-5 80,-16 z M 3337,514 c 62,-47 31,-109 -56,-109 -41,0 -56,6 -105,44 -62,46 -62,60 -1,62 24,0 76,12 124,28 2,0 19,-10 38,-25 z m -867,-14 c -48,-68 -120,-101 -173,-81 -37,14 -44,37 -22,77 l 18,34 h 99 99 z"
         id="path3607"
         style="fill:#ffffff" />
      <path
         d="m 4651,2304 c 0,-11 3,-14 6,-6 3,7 2,16 -1,19 -3,4 -6,-2 -5,-13 z"
         id="path3609"
         style="fill:#ffffff" />
      <path
         d="m 2298,2260 c 5,-51 12,-66 12,-28 0,16 8,29 23,36 21,11 21,11 -5,6 -20,-4 -27,-1 -31,13 -2,10 -2,-2 1,-27 z"
         id="path3611"
         style="fill:#ffffff" />
      <path
         d="m 5596,2290 c 3,-14 11,-32 16,-40 6,-10 7,-7 2,10 -3,14 -11,32 -16,40 -6,10 -7,7 -2,-10 z"
         id="path3613"
         style="fill:#ffffff" />
      <path
         d="m 2631,2284 c 0,-11 3,-14 6,-6 3,7 2,16 -1,19 -3,4 -6,-2 -5,-13 z"
         id="path3615"
         style="fill:#ffffff" />
      <path
         d="m 3148,2293 c 6,-2 18,-2 25,0 6,3 1,5 -13,5 -14,0 -19,-2 -12,-5 z"
         id="path3617"
         style="fill:#ffffff" />
      <path
         d="m 3572,1928 -2,-378 h -25 c -29,0 -65,-32 -64,-57 0,-13 3,-11 10,7 13,31 26,40 66,40 22,0 33,-5 36,-17 3,-10 4,7 4,37 0,45 -1,49 -6,20 -3,-19 -8,136 -11,345 l -5,380 z"
         id="path3619"
         style="fill:#ffffff" />
      <path
         d="m 2368,2283 c 7,-3 16,-2 19,1 4,3 -2,6 -13,5 -11,0 -14,-3 -6,-6 z"
         id="path3621"
         style="fill:#ffffff" />
      <path
         d="m 3088,2283 c 6,-2 18,-2 25,0 6,3 1,5 -13,5 -14,0 -19,-2 -12,-5 z"
         id="path3623"
         style="fill:#ffffff" />
      <path
         d="m 4871,2274 c 0,-11 3,-14 6,-6 3,7 2,16 -1,19 -3,4 -6,-2 -5,-13 z"
         id="path3625"
         style="fill:#ffffff" />
      <path
         d="m 970,2270 c -9,-6 -10,-10 -3,-10 6,0 15,5 18,10 8,12 4,12 -15,0 z"
         id="path3627"
         style="fill:#ffffff" />
      <path
         d="m 4662,1915 c -1,-243 -6,-365 -12,-355 -7,11 -9,-1 -8,-40 1,-43 2,-46 5,-17 4,33 7,37 31,37 53,0 55,-7 53,-147 -2,-118 -4,-129 -24,-146 l -22,-18 23,11 c 18,9 22,8 23,-7 0,-10 2,-25 3,-33 2,-8 6,-47 10,-85 6,-70 8,-84 26,-184 6,-30 10,-58 10,-63 0,-4 -63,-8 -140,-8 -138,0 -140,0 -141,23 -1,21 -1,21 -9,-3 -9,-28 -12,-63 -3,-42 3,9 44,12 154,12 135,0 149,-2 149,-17 0,-10 3,-28 6,-41 l 7,-23 -172,3 c -109,2 -171,-1 -171,-7 0,-6 61,-9 170,-7 133,2 171,0 174,-10 3,-7 21,-83 42,-168 20,-85 44,-179 54,-207 l 17,-53 -42,-32 c -24,-18 -49,-42 -55,-52 -7,-11 11,1 40,26 l 52,45 121,6 c 67,3 132,9 145,12 21,7 22,5 22,-56 0,-44 -5,-68 -17,-81 -9,-10 -12,-18 -6,-18 18,0 32,44 38,125 9,94 9,337 1,413 l -6,52 h 325 325 l 1,-175 c 1,-96 3,-179 4,-185 1,-5 3,-53 4,-105 1,-81 4,-98 21,-115 11,-11 30,-19 43,-19 20,1 20,2 2,6 -42,10 -55,33 -55,94 v 57 l 128,4 c 140,4 147,2 230,-76 18,-17 31,-24 27,-16 -3,8 -33,35 -65,60 -37,27 -58,50 -55,58 3,8 5,19 5,25 0,7 7,4 14,-6 11,-14 25,-17 58,-15 l 43,3 v 180 c -1,99 -3,194 -5,210 -3,27 3,73 15,115 6,23 14,70 21,125 4,28 8,52 10,56 10,17 19,176 19,324 -1,184 -12,252 -60,351 -14,28 -25,57 -25,65 -1,8 -7,0 -14,-16 -17,-40 -81,-95 -110,-95 -13,0 -56,16 -96,37 -93,46 -180,132 -250,247 -29,47 -55,86 -57,86 -5,0 15,-36 60,-108 22,-35 37,-65 35,-67 -15,-16 -224,-36 -318,-32 -122,6 -250,26 -250,39 0,5 11,24 24,41 29,38 90,147 83,147 -3,0 -20,-26 -37,-57 -99,-177 -240,-305 -362,-328 -31,-6 -40,-2 -73,26 -21,19 -44,47 -51,64 -9,21 -13,25 -14,11 0,-11 -11,-47 -25,-82 -14,-34 -29,-84 -35,-111 l -11,-50 -34,11 -35,11 -3,365 -2,365 z m 1263,-462 c -14,-88 -30,-229 -40,-363 -4,-58 -9,-112 -11,-120 -1,-8 -3,-36 -3,-62 l -1,-48 h -170 -170 v 184 c 0,138 3,186 13,189 6,3 3,6 -8,6 -19,1 -20,-4 -17,-188 l 3,-190 h -159 l -158,-1 -18,172 c -10,95 -20,178 -23,185 -3,8 3,13 13,14 17,1 17,2 2,6 -10,2 -18,8 -18,13 0,11 -19,156 -26,198 l -5,32 h 400 401 z m -57,-643 -2,-40 h -328 -328 v 24 c 0,13 -3,31 -6,40 -6,14 28,16 330,16 h 337 z M 6260,534 V 359 l -42,3 c -36,3 -44,7 -46,26 -5,31 70,332 80,326 4,-3 8,-84 8,-180 z"
         id="path3629"
         style="fill:#ffffff" />
      <path
         d="m 5416,1232 c 7,-4 14,-18 17,-32 4,-21 4,-20 6,8 1,24 -3,32 -16,32 -12,0 -14,-3 -7,-8 z"
         id="path3631"
         style="fill:#ffffff" />
      <path
         d="m 5433,1125 c 0,-27 2,-38 4,-22 2,15 2,37 0,50 -2,12 -4,0 -4,-28 z"
         id="path3633"
         style="fill:#ffffff" />
      <path
         d="m 5433,1025 c 0,-27 2,-38 4,-22 2,15 2,37 0,50 -2,12 -4,0 -4,-28 z"
         id="path3635"
         style="fill:#ffffff" />
      <path
         d="m 5433,925 c 0,-27 2,-38 4,-22 2,15 2,37 0,50 -2,12 -4,0 -4,-28 z"
         id="path3637"
         style="fill:#ffffff" />
      <path
         d="m 2621,2244 c 0,-11 3,-14 6,-6 3,7 2,16 -1,19 -3,4 -6,-2 -5,-13 z"
         id="path3639"
         style="fill:#ffffff" />
      <path
         d="m 5426,2245 c -9,-26 -7,-32 5,-12 6,10 9,21 6,23 -2,3 -7,-2 -11,-11 z"
         id="path3641"
         style="fill:#ffffff" />
      <path
         d="m 4861,2234 c 0,-11 3,-14 6,-6 3,7 2,16 -1,19 -3,4 -6,-2 -5,-13 z"
         id="path3643"
         style="fill:#ffffff" />
      <path
         d="m 2342,2205 c -17,-37 -14,-45 4,-12 9,16 14,31 11,33 -2,2 -9,-7 -15,-21 z"
         id="path3645"
         style="fill:#ffffff" />
      <path
         d="m 2611,2204 c 0,-11 3,-14 6,-6 3,7 2,16 -1,19 -3,4 -6,-2 -5,-13 z"
         id="path3647"
         style="fill:#ffffff" />
      <path
         d="m 4846,2174 c -4,-20 -5,-38 -3,-40 3,-3 8,11 11,32 4,20 5,38 3,40 -3,3 -8,-11 -11,-32 z"
         id="path3649"
         style="fill:#ffffff" />
      <path
         d="m 5397,2175 c -24,-50 -20,-58 4,-12 11,22 19,41 17,43 -3,2 -12,-12 -21,-31 z"
         id="path3651"
         style="fill:#ffffff" />
      <path
         d="m 5635,2188 c 4,-13 11,-27 16,-33 5,-5 4,5 -2,23 -12,36 -24,44 -14,10 z"
         id="path3653"
         style="fill:#ffffff" />
      <path
         d="m 2317,2115 c 3,-44 11,-95 19,-112 12,-30 11,-34 -6,-43 -21,-11 -60,-70 -60,-91 0,-8 10,5 21,29 12,23 31,48 43,54 11,6 22,12 24,13 1,1 -5,18 -13,38 -8,20 -15,62 -16,94 0,32 -4,67 -9,78 -6,13 -7,-10 -3,-60 z"
         id="path3655"
         style="fill:#ffffff" />
      <path
         d="m 3632,2170 c 0,-14 2,-19 5,-12 2,6 2,18 0,25 -3,6 -5,1 -5,-13 z"
         id="path3657"
         style="fill:#ffffff" />
      <path
         d="m 6202,2150 c -1,-8 5,-42 12,-75 8,-33 14,-49 14,-35 0,28 -25,133 -26,110 z"
         id="path3659"
         style="fill:#ffffff" />
      <path
         d="m 2591,2134 c 0,-11 3,-14 6,-6 3,7 2,16 -1,19 -3,4 -6,-2 -5,-13 z"
         id="path3661"
         style="fill:#ffffff" />
      <path
         d="m 5660,2136 c 0,-11 40,-86 45,-86 3,0 -4,19 -16,43 -23,45 -29,54 -29,43 z"
         id="path3663"
         style="fill:#ffffff" />
      <path
         d="m 3243,2095 c 0,-22 2,-30 4,-17 2,12 2,30 0,40 -3,9 -5,-1 -4,-23 z"
         id="path3665"
         style="fill:#ffffff" />
      <path
         d="m 4603,2090 c 0,-25 2,-35 4,-22 2,12 2,32 0,45 -2,12 -4,2 -4,-23 z"
         id="path3667"
         style="fill:#ffffff" />
      <path
         d="m 3622,2090 c 0,-19 2,-27 5,-17 2,9 2,25 0,35 -3,9 -5,1 -5,-18 z"
         id="path3669"
         style="fill:#ffffff" />
      <path
         d="m 4832,2100 c 0,-14 2,-19 5,-12 2,6 2,18 0,25 -3,6 -5,1 -5,-13 z"
         id="path3671"
         style="fill:#ffffff" />
      <path
         d="m 2560,2050 c -7,-17 -31,-41 -54,-55 -22,-14 -36,-25 -30,-25 5,0 19,7 30,15 10,8 30,15 44,15 14,1 19,4 13,7 -10,3 -9,12 3,35 8,16 13,32 11,34 -2,3 -10,-9 -17,-26 z"
         id="path3673"
         style="fill:#ffffff" />
      <path
         d="m 2990,2070 c -9,-6 -10,-10 -3,-10 6,0 15,5 18,10 8,12 4,12 -15,0 z"
         id="path3675"
         style="fill:#ffffff" />
      <path
         d="m 4815,2020 c -4,-28 -5,-53 -2,-56 2,-3 7,19 11,47 4,28 5,53 3,56 -3,2 -8,-19 -12,-47 z"
         id="path3677"
         style="fill:#ffffff" />
      <path
         d="m 2948,2053 c 7,-3 16,-2 19,1 4,3 -2,6 -13,5 -11,0 -14,-3 -6,-6 z"
         id="path3679"
         style="fill:#ffffff" />
      <path
         d="m 2893,2043 c 9,-2 23,-2 30,0 6,3 -1,5 -18,5 -16,0 -22,-2 -12,-5 z"
         id="path3681"
         style="fill:#ffffff" />
      <path
         d="m 3232,2030 c 0,-14 2,-19 5,-12 2,6 2,18 0,25 -3,6 -5,1 -5,-13 z"
         id="path3683"
         style="fill:#ffffff" />
      <path
         d="m 2823,2033 c 9,-2 25,-2 35,0 9,3 1,5 -18,5 -19,0 -27,-2 -17,-5 z"
         id="path3685"
         style="fill:#ffffff" />
      <path
         d="m 2728,2023 c 12,-2 32,-2 45,0 12,2 2,4 -23,4 -25,0 -35,-2 -22,-4 z"
         id="path3687"
         style="fill:#ffffff" />
      <path
         d="m 2618,2013 c 12,-2 32,-2 45,0 12,2 2,4 -23,4 -25,0 -35,-2 -22,-4 z"
         id="path3689"
         style="fill:#ffffff" />
      <path
         d="m 3613,1950 c 0,-36 2,-50 4,-32 2,17 2,47 0,65 -2,17 -4,3 -4,-33 z"
         id="path3691"
         style="fill:#ffffff" />
      <path
         d="m 6232,1980 c 0,-19 2,-27 5,-17 2,9 2,25 0,35 -3,9 -5,1 -5,-18 z"
         id="path3693"
         style="fill:#ffffff" />
      <path
         d="m 3852,1964 c 10,-10 20,-16 22,-13 3,3 -5,11 -17,18 -21,13 -21,12 -5,-5 z"
         id="path3695"
         style="fill:#ffffff" />
      <path
         d="m 4566,1932 c -22,-27 -24,-32 -7,-17 20,17 47,55 39,55 -2,0 -16,-17 -32,-38 z"
         id="path3697"
         style="fill:#ffffff" />
      <path
         d="m 2383,1953 c 9,-2 25,-2 35,0 9,3 1,5 -18,5 -19,0 -27,-2 -17,-5 z"
         id="path3699"
         style="fill:#ffffff" />
      <path
         d="m 3967,1943 c 18,-2 50,-2 70,0 21,2 7,4 -32,4 -38,0 -55,-2 -38,-4 z"
         id="path3701"
         style="fill:#ffffff" />
      <path
         d="m 4803,1875 c 0,-44 2,-61 4,-37 2,23 2,59 0,80 -2,20 -4,1 -4,-43 z"
         id="path3703"
         style="fill:#ffffff" />
      <path
         d="m 4168,1933 c 17,-2 47,-2 65,0 17,2 3,4 -33,4 -36,0 -50,-2 -32,-4 z"
         id="path3705"
         style="fill:#ffffff" />
      <path
         d="m 4343,1923 c 9,-2 25,-2 35,0 9,3 1,5 -18,5 -19,0 -27,-2 -17,-5 z"
         id="path3707"
         style="fill:#ffffff" />
      <path
         d="m 6243,1865 c 0,-38 2,-53 4,-32 2,20 2,52 0,70 -2,17 -4,1 -4,-38 z"
         id="path3709"
         style="fill:#ffffff" />
      <path
         d="m 4408,1913 c 7,-3 16,-2 19,1 4,3 -2,6 -13,5 -11,0 -14,-3 -6,-6 z"
         id="path3711"
         style="fill:#ffffff" />
      <path
         d="m 4491,1887 c 2,-1 13,-9 24,-17 19,-14 19,-14 6,3 -7,9 -18,17 -24,17 -6,0 -8,-1 -6,-3 z"
         id="path3713"
         style="fill:#ffffff" />
      <path
         d="m 762,1788 -2,-78 h -29 c -18,0 -35,-8 -43,-19 -10,-15 -29,-21 -69,-24 l -54,-3 58,-2 57,-2 v -129 c 0,-129 0,-130 -31,-176 -17,-25 -29,-48 -27,-50 3,-3 15,13 27,35 12,22 26,40 31,40 5,0 11,71 12,158 l 3,157 60,6 c 33,3 50,6 38,7 -20,2 -22,8 -26,80 l -3,77 z"
         id="path3715"
         style="fill:#ffffff" />
      <path
         d="m 4575,1820 c 21,-22 41,-40 44,-40 3,0 -13,18 -34,40 -21,22 -41,40 -44,40 -3,0 13,-18 34,-40 z"
         id="path3717"
         style="fill:#ffffff" />
      <path
         d="m 2263,1810 c 0,-25 2,-35 4,-22 2,12 2,32 0,45 -2,12 -4,2 -4,-23 z"
         id="path3719"
         style="fill:#ffffff" />
      <path
         d="m 2312,1830 c 0,-14 2,-19 5,-12 2,6 2,18 0,25 -3,6 -5,1 -5,-13 z"
         id="path3721"
         style="fill:#ffffff" />
      <path
         d="m 3640,1821 c 5,-11 15,-23 21,-27 6,-3 3,5 -6,20 -20,30 -30,35 -15,7 z"
         id="path3723"
         style="fill:#ffffff" />
      <path
         d="m 4284,1832 c 4,-7 2,-12 -4,-12 -6,0 -95,-9 -197,-20 -139,-16 -193,-18 -216,-10 -16,5 -51,9 -76,9 -42,-2 -41,-2 17,-9 74,-8 104,-27 150,-94 17,-27 32,-44 32,-39 0,6 -14,29 -30,51 l -30,42 h 191 190 l -19,-27 c -22,-32 -52,-100 -51,-117 0,-6 9,11 20,38 28,70 55,103 99,126 81,41 190,17 242,-54 17,-23 28,-33 25,-24 -3,10 -2,20 3,23 12,8 13,42 1,49 -4,3 -6,-6 -3,-19 5,-31 -9,-32 -34,-4 -35,40 -93,59 -180,59 -69,0 -86,3 -110,22 -15,13 -25,17 -20,10 z"
         id="path3725"
         style="fill:#ffffff" />
      <path
         d="m 3684,1781 c 3,-4 -10,-23 -29,-41 -31,-30 -63,-95 -53,-106 3,-2 10,13 16,35 7,23 28,54 51,74 29,26 36,37 25,41 -8,3 -13,2 -10,-3 z"
         id="path3727"
         style="fill:#ffffff" />
      <path
         d="m 1783,1625 c 0,-27 2,-38 4,-22 2,15 2,37 0,50 -2,12 -4,0 -4,-28 z"
         id="path3729"
         style="fill:#ffffff" />
      <path
         d="m 532,1640 c -9,-14 -12,-88 -12,-270 0,-213 2,-250 15,-250 16,0 58,41 50,49 -3,2 -12,-5 -21,-17 -8,-12 -19,-22 -25,-22 -5,0 -9,99 -9,247 0,215 2,249 17,265 9,10 12,18 7,18 -5,0 -15,-9 -22,-20 z"
         id="path3731"
         style="fill:#ffffff" />
      <path
         d="m 4642,1610 c 0,-19 2,-27 5,-17 2,9 2,25 0,35 -3,9 -5,1 -5,-18 z"
         id="path3733"
         style="fill:#ffffff" />
      <path
         d="m 4001,1594 c 0,-11 3,-14 6,-6 3,7 2,16 -1,19 -3,4 -6,-2 -5,-13 z"
         id="path3735"
         style="fill:#ffffff" />
      <path
         d="m 4231,1573 c -1,-22 -4,-23 -105,-23 -74,0 -106,4 -109,13 -3,6 -5,-6 -5,-28 0,-22 3,-30 5,-17 4,21 8,22 109,22 107,0 125,7 111,42 -3,7 -6,3 -6,-9 z"
         id="path3737"
         style="fill:#ffffff" />
      <path
         d="m 1767,1550 c -10,-40 -70,-91 -124,-106 -30,-8 -39,-13 -24,-13 62,-2 172,90 159,131 -3,7 -7,2 -11,-12 z"
         id="path3739"
         style="fill:#ffffff" />
      <path
         d="m 4223,1490 c 0,-25 2,-35 4,-22 2,12 2,32 0,45 -2,12 -4,2 -4,-23 z"
         id="path3741"
         style="fill:#ffffff" />
      <path
         d="m 3602,1475 c 0,-16 2,-22 5,-12 2,9 2,23 0,30 -3,6 -5,-1 -5,-18 z"
         id="path3743"
         style="fill:#ffffff" />
      <path
         d="m 4023,1445 c 0,-22 2,-30 4,-17 2,12 2,30 0,40 -3,9 -5,-1 -4,-23 z"
         id="path3745"
         style="fill:#ffffff" />
      <path
         d="m 4626,1429 c -8,-42 0,-50 9,-9 4,17 5,34 2,36 -2,3 -7,-10 -11,-27 z"
         id="path3747"
         style="fill:#ffffff" />
      <path
         d="m 3612,1425 c 0,-11 3,-29 8,-40 11,-25 11,1 0,35 -6,20 -8,21 -8,5 z"
         id="path3749"
         style="fill:#ffffff" />
      <path
         d="m 1558,1423 c 6,-2 18,-2 25,0 6,3 1,5 -13,5 -14,0 -19,-2 -12,-5 z"
         id="path3751"
         style="fill:#ffffff" />
      <path
         d="m 4213,1395 c 0,-22 2,-30 4,-17 2,12 2,30 0,40 -3,9 -5,-1 -4,-23 z"
         id="path3753"
         style="fill:#ffffff" />
      <path
         d="m 1508,1413 c 6,-2 18,-2 25,0 6,3 1,5 -13,5 -14,0 -19,-2 -12,-5 z"
         id="path3755"
         style="fill:#ffffff" />
      <path
         d="m 1415,1400 c -27,-7 -27,-8 -5,-8 14,0 39,4 55,8 27,7 27,8 5,8 -14,0 -38,-4 -55,-8 z"
         id="path3757"
         style="fill:#ffffff" />
      <path
         d="m 1348,1383 c 6,-2 18,-2 25,0 6,3 1,5 -13,5 -14,0 -19,-2 -12,-5 z"
         id="path3759"
         style="fill:#ffffff" />
      <path
         d="m 1293,1373 c 9,-2 23,-2 30,0 6,3 -1,5 -18,5 -16,0 -22,-2 -12,-5 z"
         id="path3761"
         style="fill:#ffffff" />
      <path
         d="m 4033,1340 c 0,-25 2,-35 4,-22 2,12 2,32 0,45 -2,12 -4,2 -4,-23 z"
         id="path3763"
         style="fill:#ffffff" />
      <path
         d="m 4611,1364 c 0,-11 3,-14 6,-6 3,7 2,16 -1,19 -3,4 -6,-2 -5,-13 z"
         id="path3765"
         style="fill:#ffffff" />
      <path
         d="m 1238,1363 c 6,-2 18,-2 25,0 6,3 1,5 -13,5 -14,0 -19,-2 -12,-5 z"
         id="path3767"
         style="fill:#ffffff" />
      <path
         d="m 1145,1350 -30,-8 h 30 c 17,0 41,4 55,8 l 25,8 h -25 c -14,0 -38,-4 -55,-8 z"
         id="path3769"
         style="fill:#ffffff" />
      <path
         d="m 3631,1344 c 0,-11 3,-14 6,-6 3,7 2,16 -1,19 -3,4 -6,-2 -5,-13 z"
         id="path3771"
         style="fill:#ffffff" />
      <path
         d="m 1078,1333 c 6,-2 18,-2 25,0 6,3 1,5 -13,5 -14,0 -19,-2 -12,-5 z"
         id="path3773"
         style="fill:#ffffff" />
      <path
         d="m 4601,1324 c 0,-11 3,-14 6,-6 3,7 2,16 -1,19 -3,4 -6,-2 -5,-13 z"
         id="path3775"
         style="fill:#ffffff" />
      <path
         d="m 1023,1323 c 9,-2 23,-2 30,0 6,3 -1,5 -18,5 -16,0 -22,-2 -12,-5 z"
         id="path3777"
         style="fill:#ffffff" />
      <path
         d="m 4199,1290 c -3,-37 -8,-45 -29,-51 -21,-6 -11,-14 13,-10 4,0 8,-18 8,-41 1,-32 4,-23 10,32 5,41 8,84 6,95 -2,11 -5,0 -8,-25 z"
         id="path3779"
         style="fill:#ffffff" />
      <path
         d="m 691,1310 c -1,-23 19,-40 46,-40 23,0 23,-2 25,-117 l 2,-118 3,115 c 3,76 8,117 16,122 7,4 -7,8 -31,8 -35,0 -44,4 -52,23 -5,13 -9,16 -9,7 z"
         id="path3781"
         style="fill:#ffffff" />
      <path
         d="m 968,1313 c 6,-2 18,-2 25,0 6,3 1,5 -13,5 -14,0 -19,-2 -12,-5 z"
         id="path3783"
         style="fill:#ffffff" />
      <path
         d="m 3477,1314 c -12,-13 25,-74 46,-74 5,0 0,8 -12,18 -12,9 -23,27 -24,40 -1,25 -1,24 -10,16 z"
         id="path3785"
         style="fill:#ffffff" />
      <path
         d="m 3641,1304 c 0,-11 3,-14 6,-6 3,7 2,16 -1,19 -3,4 -6,-2 -5,-13 z"
         id="path3787"
         style="fill:#ffffff" />
      <path
         d="m 918,1303 c 6,-2 18,-2 25,0 6,3 1,5 -13,5 -14,0 -19,-2 -12,-5 z"
         id="path3789"
         style="fill:#ffffff" />
      <path
         d="m 1163,1255 c 0,-33 2,-45 4,-27 2,18 2,45 0,60 -2,15 -4,0 -4,-33 z"
         id="path3791"
         style="fill:#ffffff" />
      <path
         d="m 858,1293 c 6,-2 18,-2 25,0 6,3 1,5 -13,5 -14,0 -19,-2 -12,-5 z"
         id="path3793"
         style="fill:#ffffff" />
      <path
         d="m 4591,1284 c 0,-11 3,-14 6,-6 3,7 2,16 -1,19 -3,4 -6,-2 -5,-13 z"
         id="path3795"
         style="fill:#ffffff" />
      <path
         d="m 596,1244 c -9,-26 -16,-52 -15,-58 0,-6 9,13 20,43 10,30 17,56 15,58 -2,2 -11,-17 -20,-43 z"
         id="path3797"
         style="fill:#ffffff" />
      <path
         d="m 808,1283 c 6,-2 18,-2 25,0 6,3 1,5 -13,5 -14,0 -19,-2 -12,-5 z"
         id="path3799"
         style="fill:#ffffff" />
      <path
         d="m 3651,1260 c 0,-14 4,-32 9,-40 9,-13 10,-13 9,0 -1,8 -5,26 -9,40 l -8,25 z"
         id="path3801"
         style="fill:#ffffff" />
      <path
         d="m 4041,1238 c 0,-31 3,-37 8,-24 7,18 3,66 -5,66 -2,0 -4,-19 -3,-42 z"
         id="path3803"
         style="fill:#ffffff" />
      <path
         d="m 4580,1245 c 0,-8 4,-15 10,-15 5,0 7,7 4,15 -4,8 -8,15 -10,15 -2,0 -4,-7 -4,-15 z"
         id="path3805"
         style="fill:#ffffff" />
      <path
         d="m 4068,1123 c -3,-65 -2,-145 2,-178 5,-44 7,-12 9,118 0,97 -1,177 -2,177 -2,0 -6,-53 -9,-117 z"
         id="path3807"
         style="fill:#ffffff" />
      <path
         d="m 4571,1204 c 0,-11 3,-14 6,-6 3,7 2,16 -1,19 -3,4 -6,-2 -5,-13 z"
         id="path3809"
         style="fill:#ffffff" />
      <path
         d="m 3671,1184 c 0,-11 3,-14 6,-6 3,7 2,16 -1,19 -3,4 -6,-2 -5,-13 z"
         id="path3811"
         style="fill:#ffffff" />
      <path
         d="m 1154,1176 c -3,-7 -4,-35 -2,-62 l 3,-49 5,63 c 5,63 4,73 -6,48 z"
         id="path3813"
         style="fill:#ffffff" />
      <path
         d="m 4053,1140 c 0,-25 2,-35 4,-22 2,12 2,32 0,45 -2,12 -4,2 -4,-23 z"
         id="path3815"
         style="fill:#ffffff" />
      <path
         d="m 4561,1164 c 0,-11 3,-14 6,-6 3,7 2,16 -1,19 -3,4 -6,-2 -5,-13 z"
         id="path3817"
         style="fill:#ffffff" />
      <path
         d="m 3681,1144 c 0,-11 3,-14 6,-6 3,7 2,16 -1,19 -3,4 -6,-2 -5,-13 z"
         id="path3819"
         style="fill:#ffffff" />
      <path
         d="m 4174,1118 c 0,-13 -3,-81 -6,-153 l -6,-130 13,120 c 16,143 18,185 7,185 -4,0 -8,-10 -8,-22 z"
         id="path3821"
         style="fill:#ffffff" />
      <path
         d="m 4551,1124 c 0,-11 3,-14 6,-6 3,7 2,16 -1,19 -3,4 -6,-2 -5,-13 z"
         id="path3823"
         style="fill:#ffffff" />
      <path
         d="m 3691,1104 c 0,-11 3,-14 6,-6 3,7 2,16 -1,19 -3,4 -6,-2 -5,-13 z"
         id="path3825"
         style="fill:#ffffff" />
      <path
         d="m 4541,1084 c 0,-11 3,-14 6,-6 3,7 2,16 -1,19 -3,4 -6,-2 -5,-13 z"
         id="path3827"
         style="fill:#ffffff" />
      <path
         d="m 3701,1064 c 0,-11 3,-14 6,-6 3,7 2,16 -1,19 -3,4 -6,-2 -5,-13 z"
         id="path3829"
         style="fill:#ffffff" />
      <path
         d="m 4531,1044 c 0,-11 3,-14 6,-6 3,7 2,16 -1,19 -3,4 -6,-2 -5,-13 z"
         id="path3831"
         style="fill:#ffffff" />
      <path
         d="m 1141,993 c 1,-62 6,-56 11,15 2,23 0,42 -4,42 -5,0 -7,-26 -7,-57 z"
         id="path3833"
         style="fill:#ffffff" />
      <path
         d="m 3711,1024 c 0,-11 3,-14 6,-6 3,7 2,16 -1,19 -3,4 -6,-2 -5,-13 z"
         id="path3835"
         style="fill:#ffffff" />
      <path
         d="m 4521,1004 c 0,-11 3,-14 6,-6 3,7 2,16 -1,19 -3,4 -6,-2 -5,-13 z"
         id="path3837"
         style="fill:#ffffff" />
      <path
         d="m 3721,984 c 0,-11 3,-14 6,-6 3,7 2,16 -1,19 -3,4 -6,-2 -5,-13 z"
         id="path3839"
         style="fill:#ffffff" />
      <path
         d="m 4511,964 c 0,-11 3,-14 6,-6 3,7 2,16 -1,19 -3,4 -6,-2 -5,-13 z"
         id="path3841"
         style="fill:#ffffff" />
      <path
         d="m 3731,944 c 0,-11 3,-14 6,-6 3,7 2,16 -1,19 -3,4 -6,-2 -5,-13 z"
         id="path3843"
         style="fill:#ffffff" />
      <path
         d="m 4501,924 c 0,-11 3,-14 6,-6 3,7 2,16 -1,19 -3,4 -6,-2 -5,-13 z"
         id="path3845"
         style="fill:#ffffff" />
      <path
         d="m 3741,904 c 0,-11 3,-14 6,-6 3,7 2,16 -1,19 -3,4 -6,-2 -5,-13 z"
         id="path3847"
         style="fill:#ffffff" />
      <path
         d="m 1133,860 c 0,-30 2,-43 4,-27 2,15 2,39 0,55 -2,15 -4,2 -4,-28 z"
         id="path3849"
         style="fill:#ffffff" />
      <path
         d="m 4080,835 c 0,-27 3,-45 7,-41 7,7 5,77 -3,85 -2,2 -4,-17 -4,-44 z"
         id="path3851"
         style="fill:#ffffff" />
      <path
         d="m 4150,795 c 0,-21 -5,-25 -30,-25 -29,0 -30,-2 -28,-42 l 1,-43 4,38 c 4,31 8,37 28,37 13,0 26,-6 28,-12 3,-7 6,6 6,30 1,23 -1,42 -4,42 -3,0 -5,-11 -5,-25 z"
         id="path3853"
         style="fill:#ffffff" />
      <path
         d="m 4471,804 c 0,-11 3,-14 6,-6 3,7 2,16 -1,19 -3,4 -6,-2 -5,-13 z"
         id="path3855"
         style="fill:#ffffff" />
      <path
         d="m 772,633 c -2,-163 -1,-174 18,-185 16,-11 20,-24 20,-73 0,-58 18,-105 41,-105 5,0 0,9 -11,20 -16,16 -20,33 -20,84 0,61 1,65 28,74 24,9 23,10 -18,9 l -45,-2 -5,175 -6,175 z"
         id="path3857"
         style="fill:#ffffff" />
      <path
         d="m 1124,776 c -3,-7 -4,-35 -2,-62 l 3,-49 5,63 c 5,63 4,73 -6,48 z"
         id="path3859"
         style="fill:#ffffff" />
      <path
         d="m 2113,736 -28,-24 -3,-184 c -2,-156 -5,-185 -19,-195 -9,-7 -12,-13 -7,-13 29,0 34,27 34,191 0,92 4,179 10,193 5,14 22,32 37,40 15,8 23,15 16,16 -7,0 -25,-11 -40,-24 z"
         id="path3861"
         style="fill:#ffffff" />
      <path
         d="m 4451,724 c 0,-11 3,-14 6,-6 3,7 2,16 -1,19 -3,4 -6,-2 -5,-13 z"
         id="path3863"
         style="fill:#ffffff" />
      <path
         d="m 1992,700 c 0,-14 2,-19 5,-12 2,6 2,18 0,25 -3,6 -5,1 -5,-13 z"
         id="path3865"
         style="fill:#ffffff" />
      <path
         d="m 3791,704 c 0,-11 3,-14 6,-6 3,7 2,16 -1,19 -3,4 -6,-2 -5,-13 z"
         id="path3867"
         style="fill:#ffffff" />
      <path
         d="m 4143,680 c 0,-25 2,-35 4,-22 2,12 2,32 0,45 -2,12 -4,2 -4,-23 z"
         id="path3869"
         style="fill:#ffffff" />
      <path
         d="m 4441,684 c 0,-11 3,-14 6,-6 3,7 2,16 -1,19 -3,4 -6,-2 -5,-13 z"
         id="path3871"
         style="fill:#ffffff" />
      <path
         d="m 3801,664 c 0,-11 3,-14 6,-6 3,7 2,16 -1,19 -3,4 -6,-2 -5,-13 z"
         id="path3873"
         style="fill:#ffffff" />
      <path
         d="m 4103,625 c 0,-27 2,-38 4,-22 2,15 2,37 0,50 -2,12 -4,0 -4,-28 z"
         id="path3875"
         style="fill:#ffffff" />
      <path
         d="m 4415,588 c -28,-114 -19,-108 -145,-108 -85,0 -112,3 -124,16 -9,8 -16,11 -16,5 0,-5 5,-13 10,-16 6,-3 11,-16 11,-28 1,-17 2,-18 6,-4 4,14 17,17 92,17 h 87 l 26,-54 27,-55 -42,19 c -56,26 -117,26 -151,-1 l -26,-20 -1,33 c -1,18 -6,-1 -10,-42 -16,-132 13,-155 182,-148 68,2 91,7 108,22 29,27 26,50 -13,93 -28,32 -86,131 -86,148 0,3 7,5 15,5 8,0 21,10 29,23 15,24 50,157 43,164 -3,2 -13,-29 -22,-69 z"
         id="path3877"
         style="fill:#ffffff" />
      <path
         d="m 1110,600 c -4,-46 -9,-57 -30,-67 -16,-8 -19,-13 -9,-13 31,0 50,35 47,86 l -4,49 z"
         id="path3879"
         style="fill:#ffffff" />
      <path
         d="m 3815,615 c 15,-82 37,-137 56,-142 10,-3 19,-7 19,-9 0,-16 -59,-116 -86,-147 -39,-42 -43,-68 -14,-97 21,-21 45,-24 175,-20 115,3 128,21 116,152 -5,45 -9,66 -10,46 -1,-43 -6,-46 -34,-20 -25,22 -101,22 -146,-1 -19,-9 -36,-17 -37,-17 -2,0 8,25 23,55 l 27,55 h 87 c 61,0 89,-4 92,-12 4,-10 6,-10 6,0 1,7 8,20 16,28 9,9 14,31 13,52 l -1,37 -4,-35 c -7,-57 -14,-60 -139,-60 h -113 l -16,58 c -9,31 -21,68 -26,82 -8,23 -9,23 -4,-5 z"
         id="path3881"
         style="fill:#ffffff" />
      <path
         d="m 4133,575 c 0,-27 2,-38 4,-22 2,15 2,37 0,50 -2,12 -4,0 -4,-28 z"
         id="path3883"
         style="fill:#ffffff" />
      <path
         d="m 1015,510 c -11,-5 -14,-9 -6,-9 8,-1 20,-9 28,-18 13,-16 13,-16 4,4 -8,16 -8,23 2,26 6,3 8,5 2,6 -5,0 -19,-4 -30,-9 z"
         id="path3885"
         style="fill:#ffffff" />
      <path
         d="m 890,470 c -18,-12 -2,-12 25,0 13,6 15,9 5,9 -8,0 -22,-4 -30,-9 z"
         id="path3887"
         style="fill:#ffffff" />
      <path
         d="m 1073,433 c 30,-32 104,-76 147,-87 14,-4 -2,6 -35,22 -34,16 -79,44 -100,62 -39,34 -40,34 -12,3 z"
         id="path3889"
         style="fill:#ffffff" />
      <path
         d="m 1990,354 c 0,-15 14,-30 35,-38 17,-6 18,-5 5,6 -8,7 -21,19 -27,27 -7,8 -13,11 -13,5 z"
         id="path3891"
         style="fill:#ffffff" />
      <path
         d="m 1284,326 c 22,-7 46,-22 54,-34 l 14,-22 -243,-2 -244,-3 235,-2 c 129,-2 240,-1 247,1 25,10 -7,55 -46,66 -51,14 -64,10 -17,-4 z"
         id="path3893"
         style="fill:#ffffff" />
      <path
         d="m 4801,194 c -1,-23 28,-54 50,-54 8,0 3,6 -11,13 -13,7 -27,23 -31,37 -6,22 -7,22 -8,4 z"
         id="path3895"
         style="fill:#ffffff" />
      <path
         d="m 6271,193 c 0,-12 -11,-29 -23,-37 -12,-9 -18,-16 -12,-16 19,0 46,38 41,57 -4,15 -5,14 -6,-4 z"
         id="path3897"
         style="fill:#ffffff" />
      <path
         d="m 5095,160 c -27,-7 -27,-8 -5,-8 14,0 36,4 50,8 20,6 21,8 5,8 -11,0 -33,-4 -50,-8 z"
         id="path3899"
         style="fill:#ffffff" />
      <path
         d="m 5968,153 c 6,-2 18,-2 25,0 6,3 1,5 -13,5 -14,0 -19,-2 -12,-5 z"
         id="path3901"
         style="fill:#ffffff" />
      <path
         d="m 5013,143 c 9,-2 25,-2 35,0 9,3 1,5 -18,5 -19,0 -27,-2 -17,-5 z"
         id="path3903"
         style="fill:#ffffff" />
      <path
         d="m 6023,143 c 9,-2 25,-2 35,0 9,3 1,5 -18,5 -19,0 -27,-2 -17,-5 z"
         id="path3905"
         style="fill:#ffffff" />
      <path
         d="m 4898,133 c 18,-2 45,-2 60,0 15,2 0,4 -33,4 -33,0 -45,-2 -27,-4 z"
         id="path3907"
         style="fill:#ffffff" />
      <path
         d="m 6113,133 c 20,-2 54,-2 75,0 20,2 3,4 -38,4 -41,0 -58,-2 -37,-4 z"
         id="path3909"
         style="fill:#ffffff" />
    </g>
  </g>
</svg>
