<?xml version="1.0" standalone="no"?>
<!DOCTYPE svg PUBLIC "-//W3C//DTD SVG 20010904//EN"
 "http://www.w3.org/TR/2001/REC-SVG-20010904/DTD/svg10.dtd">
<svg version="1.0" xmlns="http://www.w3.org/2000/svg"
 width="1024.000000pt" height="561.000000pt" viewBox="0 0 1024.000000 561.000000"
 preserveAspectRatio="xMidYMid meet">

<g transform="translate(0.000000,561.000000) scale(0.100000,-0.100000)"
fill="#000000" stroke="none">
<path d="M8158 5052 c-178 -91 -203 -115 -155 -146 33 -21 85 -22 150 -1 57
19 58 18 85 -2 33 -24 51 -72 51 -139 1 -63 -12 -77 -67 -68 -27 4 -50 1 -70
-9 -17 -8 -43 -13 -59 -11 -15 2 -20 1 -11 -2 9 -3 30 -29 47 -58 36 -64 82
-96 140 -96 52 0 54 -19 5 -45 -48 -26 -98 -85 -138 -165 -37 -74 -58 -148
-84 -295 l-17 -100 -125 116 c-125 115 -170 148 -155 112 20 -50 16 -88 -10
-115 -30 -32 -36 -33 -97 -13 -54 19 -117 81 -128 127 -7 31 -8 31 -9 6 -1
-39 -17 -35 -31 7 -6 19 -16 33 -21 29 -5 -3 -18 14 -29 38 -11 24 -17 32 -14
18 3 -14 12 -34 20 -45 8 -11 24 -35 35 -52 12 -18 26 -33 32 -33 7 -1 38 -25
69 -55 l58 -54 -25 -29 c-14 -17 -25 -37 -25 -45 0 -9 88 -125 195 -259 222
-277 206 -238 181 -438 -15 -120 -28 -280 -20 -245 3 11 7 30 10 43 l5 23 26
-21 c14 -11 40 -20 58 -20 l32 0 -2 -142 -3 -143 8 130 c4 72 8 138 9 148 0 9
6 17 12 17 23 0 177 79 259 133 46 31 86 54 88 52 3 -2 -3 -25 -11 -50 -9 -26
-14 -59 -10 -76 7 -37 -13 -65 -34 -47 -8 6 -5 -4 7 -24 31 -53 133 -160 171
-181 l34 -18 -24 20 c-18 16 -22 27 -17 48 6 27 6 27 -7 5 -13 -22 -13 -22
-58 25 -83 88 -83 89 -69 123 7 16 15 30 17 30 3 0 36 -23 74 -51 61 -45 68
-53 58 -71 -6 -11 -8 -22 -6 -25 3 -2 8 5 12 16 5 16 15 21 39 21 48 0 67 27
132 185 l33 80 2 -70 c2 -66 3 -64 9 30 4 66 15 131 33 190 86 280 88 489 6
721 -68 194 -168 373 -222 400 -45 23 -86 63 -108 107 -11 20 -22 37 -24 37
-6 0 29 -66 51 -97 16 -22 16 -23 -11 -23 -45 0 -106 -43 -169 -119 -32 -39
-63 -71 -69 -71 -15 0 0 58 29 113 15 30 22 56 19 68 -5 14 1 26 19 40 63 49
70 110 25 201 -26 54 -29 67 -20 91 15 39 40 46 63 16 14 -16 18 -33 15 -55
-7 -40 22 -74 42 -50 16 19 16 155 0 218 -14 53 -49 91 -75 81 -8 -3 -25 4
-37 15 -23 21 -68 42 -92 42 -8 0 -56 -22 -107 -48z"/>
<path d="M8081 4813 c0 -35 2 -63 7 -63 4 0 6 21 4 48 -5 75 -10 82 -11 15z"/>
<path d="M8126 4803 c-12 -12 -6 -33 9 -33 8 0 15 6 15 14 0 17 -14 28 -24 19z"/>
<path d="M7363 4555 c0 -27 2 -38 4 -22 2 15 2 37 0 50 -2 12 -4 0 -4 -28z"/>
<path d="M7280 4535 c19 -19 36 -35 39 -35 3 0 -10 16 -29 35 -19 19 -36 35
-39 35 -3 0 10 -16 29 -35z"/>
<path d="M7238 4443 c12 -2 32 -2 45 0 12 2 2 4 -23 4 -25 0 -35 -2 -22 -4z"/>
<path d="M7402 4427 c-23 -24 -29 -52 -13 -61 4 -3 6 -16 4 -28 -2 -13 0 -34
6 -48 9 -22 10 -20 5 13 -5 31 -4 36 9 31 9 -3 20 -18 26 -32 5 -15 10 -21 10
-14 1 6 8 12 16 12 19 0 34 -38 37 -88 l1 -37 4 33 c2 17 8 32 13 32 13 0 37
-39 45 -73 4 -15 21 -38 37 -52 27 -23 33 -24 52 -12 33 22 31 44 -8 92 -20
24 -36 47 -36 52 0 4 -16 21 -35 36 -36 29 -46 57 -20 57 23 0 116 -49 150
-79 l30 -26 -25 29 c-31 35 -136 89 -161 83 -12 -3 -26 6 -43 27 -34 44 -65
76 -75 76 -4 0 -17 -10 -29 -23z"/>
<path d="M7451 4244 c0 -11 3 -14 6 -6 3 7 2 16 -1 19 -3 4 -6 -2 -5 -13z"/>
<path d="M3278 3760 c-16 -12 -37 -51 -58 -110 -17 -50 -30 -93 -28 -96 3 -2
17 33 33 79 33 95 50 123 85 136 15 6 19 10 9 10 -9 1 -27 -8 -41 -19z"/>
<path d="M3850 3769 c13 -6 32 -15 40 -22 9 -7 5 -2 -8 11 -13 12 -31 22 -40
21 -11 0 -9 -4 8 -10z"/>
<path d="M3910 3717 c0 -14 103 -287 107 -283 2 2 -19 66 -47 142 -48 130 -60
157 -60 141z"/>
<path d="M3781 3614 c0 -11 3 -14 6 -6 3 7 2 16 -1 19 -3 4 -6 -2 -5 -13z"/>
<path d="M3792 3575 c0 -11 4 -31 8 -45 6 -20 8 -21 8 -5 0 11 -4 31 -8 45 -6
20 -8 21 -8 5z"/>
<path d="M3150 3453 c-74 -200 -120 -336 -116 -340 2 -2 12 20 21 49 10 29 44
124 77 212 33 87 57 160 55 162 -2 3 -19 -35 -37 -83z"/>
<path d="M3811 3495 c-1 -14 39 -198 45 -204 2 -2 4 2 4 10 -1 20 -48 206 -49
194z"/>
<path d="M4022 3410 c3 -8 15 -46 28 -83 12 -38 24 -66 26 -64 5 5 -43 148
-53 156 -3 3 -4 -1 -1 -9z"/>
<path d="M5555 3323 c-22 -8 -78 -16 -125 -17 -92 -2 -123 -13 -185 -68 -69
-60 -87 -129 -67 -258 15 -92 -2 -111 -125 -136 -43 -9 -90 -23 -105 -30 -32
-16 -58 -61 -58 -98 0 -22 -11 -30 -75 -60 -218 -101 -392 -262 -487 -451 -59
-117 -100 -302 -97 -440 1 -44 4 -31 10 50 11 138 31 228 72 330 80 198 244
369 460 480 99 51 113 53 122 25 3 -11 22 -43 42 -72 l36 -52 -18 -30 c-30
-51 -75 -140 -75 -150 0 -5 7 -3 15 4 8 7 15 19 15 28 0 30 74 147 129 203 65
66 118 87 183 71 21 -5 38 -7 38 -3 0 4 18 15 40 25 27 12 48 31 65 60 31 54
31 76 0 106 -36 34 -60 102 -46 129 15 27 39 27 67 0 20 -19 26 -20 58 -9 28
9 40 22 60 64 l25 53 52 -13 c37 -10 63 -11 93 -4 57 13 55 14 71 -22 16 -37
20 -23 5 16 -8 21 -4 30 25 59 30 30 35 42 35 83 0 42 -4 51 -40 85 -61 58
-136 73 -215 42z"/>
<path d="M9362 3288 c-26 -70 -45 -166 -39 -203 3 -25 4 -23 6 11 1 39 36 188
49 209 3 5 12 -8 19 -30 12 -36 13 -37 8 -7 -6 42 7 34 41 -24 15 -25 29 -43
31 -40 6 5 -61 109 -81 126 -12 9 -18 1 -34 -42z"/>
<path d="M3862 3265 c0 -11 6 -42 13 -70 7 -27 13 -41 13 -30 0 11 -6 43 -13
70 -7 28 -13 41 -13 30z"/>
<path d="M4080 3247 c0 -3 14 -43 30 -88 35 -95 33 -128 -10 -159 -27 -19 -43
-20 -518 -20 l-491 0 -27 23 c-16 14 -30 39 -34 63 -6 32 -8 34 -9 11 -1 -39
25 -86 55 -97 14 -6 122 -10 240 -10 l214 0 0 -955 0 -955 -125 0 c-163 0
-212 -20 -230 -92 l-7 -28 412 0 411 0 -23 43 c-36 66 -69 77 -225 77 l-133 0
0 955 0 955 234 0 234 0 30 25 c45 38 48 69 12 165 -29 78 -40 103 -40 87z"/>
<path d="M9411 3219 c1 -28 67 -344 68 -326 1 20 -59 330 -65 336 -2 2 -4 -2
-3 -10z"/>
<path d="M9480 3189 c0 -3 10 -25 22 -50 12 -24 32 -78 44 -119 12 -41 23 -66
23 -55 1 27 -52 176 -72 206 -9 13 -17 21 -17 18z"/>
<path d="M9940 3164 c-83 -56 -192 -185 -252 -299 -32 -62 -78 -207 -77 -243
0 -15 6 0 14 33 17 76 56 181 91 242 69 121 204 260 239 247 16 -6 17 -17 11
-103 -3 -53 -8 -109 -11 -126 l-5 -30 11 30 c14 41 24 228 12 248 -8 16 -11
16 -33 1z"/>
<path d="M3890 3121 c0 -11 4 -22 9 -25 4 -3 6 6 3 19 -5 30 -12 33 -12 6z"/>
<path d="M9904 3073 c-57 -102 -174 -336 -174 -348 0 -5 31 51 68 125 38 74
88 168 111 209 23 41 40 76 37 78 -2 2 -21 -27 -42 -64z"/>
<path d="M8774 3056 c-3 -8 -4 -25 -2 -38 3 -17 5 -13 9 15 5 38 2 47 -7 23z"/>
<path d="M6924 2965 c0 -49 1 -71 3 -48 2 23 2 64 0 90 -2 26 -3 8 -3 -42z"/>
<path d="M9310 3004 c0 -16 5 -36 10 -44 6 -10 7 -2 3 25 -7 49 -13 58 -13 19z"/>
<path d="M7025 2928 l-60 -63 63 60 c58 55 67 65 59 65 -1 0 -29 -28 -62 -62z"/>
<path d="M8764 2976 c-3 -8 -4 -25 -2 -38 3 -17 5 -13 9 15 5 38 2 47 -7 23z"/>
<path d="M5580 2960 c0 -5 5 -10 10 -10 6 0 10 5 10 10 0 6 -4 10 -10 10 -5 0
-10 -4 -10 -10z"/>
<path d="M5690 2960 c0 -5 7 -10 15 -10 8 0 15 5 15 10 0 6 -7 10 -15 10 -8 0
-15 -4 -15 -10z"/>
<path d="M7922 2930 c0 -19 2 -27 5 -17 2 9 2 25 0 35 -3 9 -5 1 -5 -18z"/>
<path d="M5751 2934 c0 -11 3 -14 6 -6 3 7 2 16 -1 19 -3 4 -6 -2 -5 -13z"/>
<path d="M9572 2920 c-1 -14 3 -43 7 -65 6 -26 9 -31 9 -15 1 14 -3 43 -7 65
-6 26 -9 31 -9 15z"/>
<path d="M9322 2900 c0 -19 2 -27 5 -17 2 9 2 25 0 35 -3 9 -5 1 -5 -18z"/>
<path d="M8752 2890 c0 -14 2 -19 5 -12 2 6 2 18 0 25 -3 6 -5 1 -5 -13z"/>
<path d="M7917 2883 c-3 -5 -7 -48 -10 -98 -6 -101 -1 -89 11 28 8 75 8 85 -1
70z"/>
<path d="M5705 2844 c-15 -20 -50 -47 -79 -60 -28 -13 -45 -24 -38 -24 34 0
121 62 143 103 16 28 3 19 -26 -19z"/>
<path d="M9931 2839 c-23 -77 -87 -202 -135 -264 -39 -50 -158 -165 -171 -165
-5 0 15 69 36 123 11 26 19 51 19 55 -1 16 -21 -27 -41 -86 -11 -34 -25 -60
-30 -56 -5 3 -9 -11 -9 -31 0 -20 -5 -57 -12 -83 -9 -37 -13 -42 -19 -26 -5
13 -8 3 -8 -30 -1 -27 -8 -87 -17 -134 -8 -46 -19 -137 -22 -203 -4 -68 -11
-120 -17 -120 -5 0 -18 35 -27 78 -14 64 -16 68 -11 23 13 -114 22 -105 -94
-108 -69 -2 -105 -7 -112 -16 -13 -16 142 -1131 161 -1153 8 -11 47 -13 177
-11 l166 3 11 25 c7 14 37 205 68 425 31 220 66 463 77 539 11 77 18 150 15
162 -6 22 -11 23 -119 26 l-112 3 0 55 c0 30 3 82 7 115 5 47 5 52 -2 23 -5
-21 -13 -73 -17 -115 l-8 -78 -45 0 -45 0 -5 135 -6 135 -2 -132 c-1 -72 -6
-134 -11 -137 -5 -4 -16 -3 -25 0 -13 5 -16 22 -16 83 1 77 14 201 27 256 7
28 8 26 14 -20 5 -42 6 -36 7 38 1 48 9 117 18 152 14 53 22 69 53 91 20 15
55 45 79 68 23 22 42 37 42 33 0 -3 -9 -28 -19 -55 -30 -76 -51 -193 -50 -274
2 -72 2 -71 9 27 11 153 43 252 115 365 47 74 117 147 139 147 18 0 30 -63 25
-130 -2 -25 -1 -43 4 -40 14 9 3 203 -13 203 -4 0 -29 -19 -56 -42 -26 -24
-45 -36 -42 -28 37 86 68 174 66 182 -2 6 -10 -9 -17 -33z"/>
<path d="M9482 2845 c0 -16 2 -22 5 -12 2 9 2 23 0 30 -3 6 -5 -1 -5 -18z"/>
<path d="M8733 2815 c-6 -25 -7 -45 -3 -45 8 0 23 80 17 86 -2 2 -8 -16 -14
-41z"/>
<path d="M9331 2849 c-1 -19 29 -122 34 -117 2 2 -5 32 -15 68 -10 36 -19 58
-19 49z"/>
<path d="M7013 2823 c20 -2 54 -2 75 0 20 2 3 4 -38 4 -41 0 -58 -2 -37 -4z"/>
<path d="M6363 2812 c-7 -4 -20 -26 -29 -47 -19 -46 -10 -42 14 7 l17 33 254
3 c188 2 257 -1 268 -10 14 -12 14 -42 -1 -93 -4 -11 0 -6 8 10 20 41 20 69
-2 88 -16 15 -50 17 -268 17 -137 0 -254 -4 -261 -8z"/>
<path d="M9115 2778 c-3 -24 -5 -72 -3 -108 4 -60 4 -58 6 22 1 48 6 89 11 92
4 3 20 -17 35 -44 33 -60 45 -67 16 -9 -12 23 -19 43 -17 45 2 3 34 -27 70
-66 77 -84 159 -237 187 -350 10 -41 19 -67 19 -56 2 38 -32 144 -70 221 -59
117 -138 216 -221 276 l-27 19 -6 -42z"/>
<path d="M9492 2785 c0 -16 2 -22 5 -12 2 9 2 23 0 30 -3 6 -5 -1 -5 -18z"/>
<path d="M9582 2790 c0 -14 2 -19 5 -12 2 6 2 18 0 25 -3 6 -5 1 -5 -13z"/>
<path d="M5561 2737 c-1 -27 17 -77 41 -109 18 -24 -31 -94 -74 -107 -28 -8
-29 -9 -9 -10 16 -1 34 11 55 35 17 20 47 52 66 72 23 23 28 31 13 24 -12 -7
-26 -12 -32 -12 -17 0 -41 44 -50 91 -7 33 -9 37 -10 16z"/>
<path d="M8707 2698 c-9 -37 -17 -73 -16 -80 0 -7 9 19 20 57 10 39 17 74 16
80 -2 5 -11 -21 -20 -57z"/>
<path d="M9502 2735 c-1 -11 3 -38 7 -60 7 -34 9 -35 9 -10 0 35 -15 101 -16
70z"/>
<path d="M6311 2698 c-106 -283 -136 -354 -149 -365 -52 -42 -64 -47 -72 -32
-52 92 -232 309 -274 330 -11 6 0 -7 25 -29 48 -43 187 -218 225 -285 l22 -40
-21 -17 c-112 -84 -127 -92 -127 -71 0 14 9 25 25 31 29 11 33 41 9 64 -14 14
-14 17 -1 22 41 15 11 75 -35 73 -18 -1 -15 -3 10 -10 26 -8 33 -14 30 -32 -3
-20 -8 -22 -73 -20 -67 1 -68 1 -22 -7 84 -15 123 -56 76 -81 -15 -8 -24 -8
-32 0 -19 19 -31 12 -14 -7 37 -41 3 -75 -53 -52 -21 9 -33 9 -50 0 -12 -6
-19 -14 -16 -17 3 -3 11 -1 19 5 9 8 25 8 56 -2 l43 -12 -56 -42 c-31 -24 -56
-45 -56 -49 0 -3 15 6 33 19 17 13 46 35 64 48 18 13 30 26 28 30 -2 4 1 7 8
7 7 0 67 41 133 92 l121 92 46 122 c87 230 97 257 92 257 -3 0 -9 -10 -14 -22z"/>
<path d="M9370 2715 c0 -17 86 -162 131 -223 32 -42 44 -68 50 -111 7 -51 8
-49 4 19 -3 51 0 88 10 115 8 22 14 49 14 60 -1 11 -5 4 -10 -15 -17 -63 -22
-67 -30 -25 -7 37 -7 36 -5 -13 3 -42 1 -50 -10 -41 -18 15 -82 112 -121 184
-18 33 -33 55 -33 50z"/>
<path d="M9912 2632 c-23 -48 -42 -92 -42 -97 0 -6 21 32 45 84 25 52 44 96
42 98 -2 1 -22 -36 -45 -85z"/>
<path d="M9712 2685 c-17 -37 -14 -45 4 -12 9 16 14 31 11 33 -2 2 -9 -7 -15
-21z"/>
<path d="M9581 2674 c0 -11 3 -14 6 -6 3 7 2 16 -1 19 -3 4 -6 -2 -5 -13z"/>
<path d="M6834 2579 c-21 -56 -43 -102 -49 -104 -63 -16 -70 -21 -76 -58 l-6
-37 57 0 c62 0 94 -16 88 -46 -3 -17 -13 -19 -86 -22 -69 -2 -83 0 -89 14 -3
9 0 26 7 38 12 19 12 20 -3 7 -21 -16 -22 -45 -3 -60 8 -7 12 -21 9 -31 -3
-11 1 -27 8 -36 11 -14 10 -19 -10 -35 -34 -28 -76 -24 -128 13 -98 67 -212
91 -305 64 -43 -12 -97 -46 -229 -146 -96 -71 -181 -129 -190 -130 -9 0 -20 7
-23 16 -4 9 -9 14 -13 11 -9 -10 18 -37 37 -37 9 0 30 10 46 22 15 13 25 17
21 11 -16 -25 -175 -138 -234 -165 -45 -21 -84 -31 -140 -35 l-78 -6 73 79
c39 43 72 83 72 88 0 5 -17 -10 -37 -35 -144 -174 -304 -274 -463 -289 l-75
-7 67 -2 68 -1 11 -45 c24 -95 110 -197 203 -242 l39 -18 -164 -5 c-153 -5
-147 -6 98 -8 144 -1 268 -5 277 -8 14 -5 16 16 16 200 0 131 4 206 10 206 6
0 10 -51 10 -134 l0 -133 45 -17 c55 -22 108 -81 134 -152 25 -66 19 -110 -26
-177 -18 -27 -27 -44 -18 -37 24 20 62 90 68 127 4 17 2 45 -3 62 -6 21 -5 33
4 40 8 7 150 12 398 13 l384 3 -110 182 -111 182 -213 1 -213 0 28 -47 c15
-27 62 -105 105 -175 43 -71 78 -130 78 -133 0 -3 -76 -5 -169 -5 -103 0 -172
-4 -176 -10 -10 -17 -19 -11 -33 18 -18 42 -71 93 -119 114 l-43 19 0 93 c0
140 -29 130 389 137 190 3 347 6 349 7 1 1 -8 19 -21 40 -31 48 -52 90 -40 77
12 -12 100 -154 278 -445 75 -124 166 -271 201 -328 l64 -103 -22 -42 c-34
-68 -162 -257 -222 -329 l-56 -68 -871 0 -870 0 -51 47 c-67 62 -184 203 -248
298 -51 75 -77 102 -43 44 39 -67 159 -218 234 -294 44 -44 79 -84 79 -88 0
-4 -130 -6 -289 -5 -159 2 -287 0 -284 -4 2 -5 532 -8 1177 -8 l1173 0 65 83
c75 96 152 209 198 290 17 31 36 54 41 51 5 -3 23 -29 39 -57 26 -45 30 -63
30 -127 1 -41 7 -88 14 -105 11 -25 10 -32 -2 -41 -9 -7 -13 -18 -9 -28 6 -16
34 -17 331 -14 302 3 325 4 345 22 12 11 21 26 20 35 0 11 -3 9 -9 -5 -16 -39
-57 -44 -376 -44 -261 0 -304 2 -304 15 0 12 24 15 137 17 l137 3 8 33 c11 40
77 108 126 130 21 8 57 19 82 23 37 7 33 7 -20 4 -59 -5 -69 -2 -108 23 -62
42 -94 88 -86 127 6 33 -28 154 -85 306 l-28 77 54 5 c161 17 230 220 113 337
-48 48 -95 60 -239 60 l-121 0 -28 47 c-47 80 -181 265 -244 336 l-60 67 31 0
c21 0 41 10 62 29 29 28 29 30 9 36 -15 5 -20 13 -18 28 3 19 10 22 59 25 63
3 92 -15 69 -43 -7 -9 -8 -15 -2 -15 13 0 23 26 16 43 -3 8 2 20 11 27 8 7 15
25 15 41 0 19 5 29 15 29 22 0 38 36 25 60 -10 19 -26 26 -76 32 -20 3 -19 7
18 102 22 54 37 100 35 102 -2 2 -21 -41 -43 -97z m52 -136 c16 -17 17 -23 5
-42 -7 -10 -29 -13 -82 -12 -40 1 -76 4 -81 7 -12 8 -10 38 4 52 16 16 136 12
154 -5z m-566 -573 c6 -11 8 -20 6 -20 -3 0 -10 9 -16 20 -6 11 -8 20 -6 20 3
0 10 -9 16 -20z m933 -989 c14 -21 46 -51 71 -67 51 -32 55 -40 27 -49 -30 -9
-101 -92 -108 -125 l-5 -30 -113 0 c-143 0 -147 3 -155 133 -3 51 -11 102 -18
114 -6 12 -12 26 -12 30 0 5 53 9 118 9 73 0 124 4 137 11 29 18 30 17 58 -26z"/>
<path d="M9200 2678 c0 -8 89 -172 90 -165 0 11 -79 167 -85 167 -3 0 -5 -1
-5 -2z"/>
<path d="M5693 2653 c9 -2 23 -2 30 0 6 3 -1 5 -18 5 -16 0 -22 -2 -12 -5z"/>
<path d="M5755 2650 c27 -12 43 -12 25 0 -8 5 -22 9 -30 9 -10 0 -8 -3 5 -9z"/>
<path d="M5275 2640 c3 -6 11 -10 16 -10 5 0 49 -25 96 -55 48 -30 91 -55 97
-55 5 0 -29 25 -77 55 -90 57 -143 83 -132 65z"/>
<path d="M9582 2625 c0 -16 2 -22 5 -12 2 9 2 23 0 30 -3 6 -5 -1 -5 -18z"/>
<path d="M9686 2625 c-9 -26 -7 -32 5 -12 6 10 9 21 6 23 -2 3 -7 -2 -11 -11z"/>
<path d="M9522 2605 c0 -16 2 -22 5 -12 2 9 2 23 0 30 -3 6 -5 -1 -5 -18z"/>
<path d="M7891 2558 c1 -55 5 -50 11 15 2 20 0 37 -4 37 -4 0 -7 -24 -7 -52z"/>
<path d="M6540 2568 c-25 -41 -22 -86 7 -105 21 -14 25 -13 53 15 21 22 30 40
30 64 0 65 -56 81 -90 26z"/>
<path d="M8665 2528 c-33 -144 -55 -261 -54 -282 1 -11 5 2 11 29 5 28 22 110
39 184 16 74 28 136 25 138 -2 2 -12 -29 -21 -69z"/>
<path d="M9121 2578 c-2 -48 57 -210 105 -292 29 -50 76 -108 129 -160 52 -52
87 -95 94 -117 l11 -34 -5 40 c-3 22 -5 65 -6 95 -1 36 -3 47 -8 32 -5 -19
-13 -2 -39 78 -19 56 -35 100 -37 98 -2 -2 12 -54 32 -116 19 -62 32 -116 28
-120 -12 -12 -162 155 -200 222 -40 71 -70 153 -90 241 -8 35 -14 49 -14 33z"/>
<path d="M9602 2560 c0 -19 2 -27 5 -17 2 9 2 25 0 35 -3 9 -5 1 -5 -18z"/>
<path d="M9968 2467 c-26 -109 -99 -247 -168 -320 -51 -53 -59 -59 -60 -39 0
33 43 183 84 288 51 134 50 130 39 119 -25 -24 -133 -353 -133 -407 0 -19 -2
-20 -10 -8 -8 12 -10 10 -10 -11 0 -14 2 -28 5 -31 9 -9 130 123 168 183 56
88 117 255 105 288 -1 6 -11 -22 -20 -62z"/>
<path d="M8062 2495 c0 -16 2 -22 5 -12 2 9 2 23 0 30 -3 6 -5 -1 -5 -18z"/>
<path d="M9291 2495 c0 -5 9 -28 20 -50 10 -22 16 -29 13 -15 -7 28 -33 80
-33 65z"/>
<path d="M8064 2320 c0 -69 1 -97 3 -62 2 34 2 90 0 125 -2 34 -3 6 -3 -63z"/>
<path d="M7892 2405 c0 -16 2 -22 5 -12 2 9 2 23 0 30 -3 6 -5 -1 -5 -18z"/>
<path d="M9336 2380 c3 -14 11 -32 16 -40 6 -10 7 -7 2 10 -3 14 -11 32 -16
40 -6 10 -7 7 -2 -10z"/>
<path d="M4970 2380 c-13 -8 -13 -10 2 -10 9 0 20 5 23 10 8 13 -5 13 -25 0z"/>
<path d="M5863 2383 c9 -2 25 -2 35 0 9 3 1 5 -18 5 -19 0 -27 -2 -17 -5z"/>
<path d="M4928 2373 c7 -3 16 -2 19 1 4 3 -2 6 -13 5 -11 0 -14 -3 -6 -6z"/>
<path d="M5043 2373 c9 -2 25 -2 35 0 9 3 1 5 -18 5 -19 0 -27 -2 -17 -5z"/>
<path d="M5793 2373 c9 -2 23 -2 30 0 6 3 -1 5 -18 5 -16 0 -22 -2 -12 -5z"/>
<path d="M5126 2351 c44 -27 46 -32 24 -90 -11 -28 -20 -57 -20 -64 1 -12 50
109 50 123 0 9 -63 50 -76 50 -5 0 5 -9 22 -19z"/>
<path d="M5692 2331 c-22 -17 -66 -62 -97 -101 -65 -82 -172 -166 -282 -222
-43 -21 -67 -36 -53 -32 90 24 268 151 331 234 27 36 84 92 129 129 38 31 18
25 -28 -8z"/>
<path d="M7891 2324 c0 -11 3 -14 6 -6 3 7 2 16 -1 19 -3 4 -6 -2 -5 -13z"/>
<path d="M4840 2231 c-17 -56 -30 -107 -27 -114 2 -6 10 13 17 43 7 30 21 79
32 109 10 30 16 56 14 59 -3 2 -19 -41 -36 -97z"/>
<path d="M7893 2235 c0 -27 2 -38 4 -22 2 15 2 37 0 50 -2 12 -4 0 -4 -28z"/>
<path d="M9443 2245 c0 -22 2 -30 4 -17 2 12 2 30 0 40 -3 9 -5 -1 -4 -23z"/>
<path d="M5843 2243 c9 -2 25 -2 35 0 9 3 1 5 -18 5 -19 0 -27 -2 -17 -5z"/>
<path d="M8602 2190 c0 -19 2 -27 5 -17 2 9 2 25 0 35 -3 9 -5 1 -5 -18z"/>
<path d="M8077 2030 c3 -91 9 -205 13 -255 7 -72 7 -62 3 50 -3 77 -9 192 -14
255 -6 96 -7 88 -2 -50z"/>
<path d="M5111 2134 c0 -11 3 -14 6 -6 3 7 2 16 -1 19 -3 4 -6 -2 -5 -13z"/>
<path d="M5765 2103 c-32 -59 -82 -100 -138 -113 -24 -6 -26 -8 -9 -9 34 -2
98 35 125 71 29 39 50 78 45 83 -2 3 -13 -12 -23 -32z"/>
<path d="M8592 2115 c0 -16 2 -22 5 -12 2 9 2 23 0 30 -3 6 -5 -1 -5 -18z"/>
<path d="M7903 2095 c0 -22 2 -30 4 -17 2 12 2 30 0 40 -3 9 -5 -1 -4 -23z"/>
<path d="M5095 2060 c-9 -64 11 -101 53 -99 l27 2 -28 4 c-35 6 -50 41 -41
100 3 23 4 43 1 43 -3 0 -8 -23 -12 -50z"/>
<path d="M4802 2075 c0 -16 2 -22 5 -12 2 9 2 23 0 30 -3 6 -5 -1 -5 -18z"/>
<path d="M8583 2045 c0 -22 2 -30 4 -17 2 12 2 30 0 40 -3 9 -5 -1 -4 -23z"/>
<path d="M7911 2020 c-1 -54 53 -289 64 -278 3 2 -5 38 -17 79 -11 41 -26 110
-33 154 -7 46 -13 65 -14 45z"/>
<path d="M4794 1945 c1 -82 6 -109 25 -148 22 -46 88 -107 115 -107 6 0 -6 10
-26 23 -75 46 -98 94 -108 232 l-8 100 2 -100z"/>
<path d="M8565 1920 c-4 -45 -5 -83 -2 -86 2 -3 8 32 11 77 4 44 5 83 3 85 -3
3 -8 -31 -12 -76z"/>
<path d="M5193 1963 c9 -2 23 -2 30 0 6 3 -1 5 -18 5 -16 0 -22 -2 -12 -5z"/>
<path d="M8547 1688 c-8 -139 -7 -403 2 -523 l7 -90 4 73 c3 41 2 76 -2 79 -5
2 -8 70 -8 151 0 127 2 144 14 132 8 -8 55 -71 105 -140 86 -118 90 -125 68
-132 -19 -5 -20 -6 -2 -7 15 -1 -2 -23 -70 -91 -61 -61 -92 -86 -97 -77 -10
15 -9 -46 1 -135 4 -38 5 -68 2 -68 -24 0 -411 255 -411 271 0 5 -4 9 -10 9
-6 0 -9 -5 -8 -11 2 -5 -37 -34 -87 -63 -140 -81 -232 -144 -239 -161 -7 -20
8 -51 30 -59 23 -9 732 -7 737 2 2 4 0 47 -5 97 l-10 89 101 96 c56 52 101
100 101 107 0 6 -28 49 -62 95 -34 45 -83 114 -110 151 l-49 68 7 125 c4 68 5
124 2 124 -3 0 -8 -51 -11 -112z m-239 -676 c81 -55 170 -113 197 -130 l50
-32 -161 0 -162 0 -7 38 c-12 64 -47 132 -84 163 -35 29 -35 31 -17 45 11 7
24 14 28 14 5 0 75 -44 156 -98z"/>
<path d="M7980 1726 c0 -13 62 -167 66 -164 2 2 -10 40 -27 84 -30 76 -39 95
-39 80z"/>
<path d="M4988 1673 c7 -3 16 -2 19 1 4 3 -2 6 -13 5 -11 0 -14 -3 -6 -6z"/>
<path d="M4242 1640 c-1 -19 3 -53 7 -75 8 -35 9 -36 9 -10 0 17 -3 50 -7 75
-8 42 -9 43 -9 10z"/>
<path d="M8103 1605 c0 -33 2 -45 4 -27 2 18 2 45 0 60 -2 15 -4 0 -4 -33z"/>
<path d="M8051 1548 c-1 -4 15 -41 34 -84 19 -42 35 -92 35 -112 0 -19 2 -33
5 -30 3 3 2 54 -2 114 -6 90 -9 100 -13 59 l-5 -50 -27 55 c-14 30 -27 52 -27
48z"/>
<path d="M4262 1500 c0 -14 2 -19 5 -12 2 6 2 18 0 25 -3 6 -5 1 -5 -13z"/>
<path d="M4270 1459 c0 -21 59 -219 71 -239 13 -18 12 -15 -35 140 -19 63 -35
108 -36 99z"/>
<path d="M4993 1321 c-83 -38 -185 -160 -182 -218 0 -12 3 -10 8 7 31 100 115
184 216 216 22 7 31 13 20 13 -11 0 -39 -8 -62 -18z"/>
<path d="M8133 1265 c0 -27 2 -38 4 -22 2 15 2 37 0 50 -2 12 -4 0 -4 -28z"/>
<path d="M5621 1264 c0 -11 3 -14 6 -6 3 7 2 16 -1 19 -3 4 -6 -2 -5 -13z"/>
<path d="M8618 1223 c18 -2 45 -2 60 0 15 2 0 4 -33 4 -33 0 -45 -2 -27 -4z"/>
<path d="M5621 1194 c0 -11 3 -14 6 -6 3 7 2 16 -1 19 -3 4 -6 -2 -5 -13z"/>
<path d="M8138 1180 c2 -16 6 -30 8 -30 2 0 4 14 4 30 0 17 -4 30 -8 30 -5 0
-7 -13 -4 -30z"/>
<path d="M4350 1199 c-1 -23 118 -254 127 -245 3 2 -2 15 -10 28 -9 12 -38 68
-66 123 -27 55 -50 97 -51 94z"/>
<path d="M5621 1154 c0 -11 3 -14 6 -6 3 7 2 16 -1 19 -3 4 -6 -2 -5 -13z"/>
<path d="M5621 1115 c-1 -28 26 -65 47 -64 13 0 12 3 -6 11 -12 6 -26 25 -31
42 -6 21 -9 25 -10 11z"/>
<path d="M4802 1055 c0 -16 2 -22 5 -12 2 9 2 23 0 30 -3 6 -5 -1 -5 -18z"/>
<path d="M5725 1065 c-16 -8 -23 -14 -14 -15 8 0 24 7 35 15 23 18 18 18 -21
0z"/>
<path d="M4043 943 c26 -2 67 -2 90 0 23 2 2 3 -48 3 -49 0 -68 -1 -42 -3z"/>
<path d="M4193 933 c9 -2 25 -2 35 0 9 3 1 5 -18 5 -19 0 -27 -2 -17 -5z"/>
<path d="M4265 930 c11 -5 29 -8 40 -8 16 0 15 2 -5 8 -34 11 -60 11 -35 0z"/>
<path d="M4345 900 c18 -20 18 -21 -9 -49 -15 -15 -73 -54 -129 -86 -207 -117
-249 -150 -233 -190 10 -27 73 -46 165 -50 l86 -4 -87 9 c-152 16 -193 49
-128 104 17 14 88 57 158 97 139 79 187 112 196 135 7 18 -10 54 -26 54 -6 0
-3 -9 7 -20z"/>
<path d="M7517 789 c7 -7 15 -10 18 -7 3 3 -2 9 -12 12 -14 6 -15 5 -6 -5z"/>
<path d="M7591 743 c23 -21 48 -51 55 -68 7 -16 13 -23 14 -14 0 18 -42 77
-73 101 -41 32 -38 19 4 -19z"/>
</g>
</svg>
