<?xml version="1.0" encoding="UTF-8" standalone="no"?>
<svg
   xmlns:dc="http://purl.org/dc/elements/1.1/"
   xmlns:cc="http://creativecommons.org/ns#"
   xmlns:rdf="http://www.w3.org/1999/02/22-rdf-syntax-ns#"
   xmlns:svg="http://www.w3.org/2000/svg"
   xmlns="http://www.w3.org/2000/svg"
   xmlns:sodipodi="http://sodipodi.sourceforge.net/DTD/sodipodi-0.dtd"
   xmlns:inkscape="http://www.inkscape.org/namespaces/inkscape"
   version="1.1"
   id="svg7569"
   xml:space="preserve"
   width="2560"
   height="1440"
   viewBox="0 0 2560 1440"
   sodipodi:docname="Sequencia-facil-1.svg"
   inkscape:version="1.0.1 (0767f8302a, 2020-10-17)"><metadata
     id="metadata7575"><rdf:RDF><cc:Work
         rdf:about=""><dc:format>image/svg+xml</dc:format><dc:type
           rdf:resource="http://purl.org/dc/dcmitype/StillImage" /><dc:title></dc:title></cc:Work></rdf:RDF></metadata><defs
     id="defs7573"><clipPath
       clipPathUnits="userSpaceOnUse"
       id="clipPath7593"><path
         d="M 0,0 H 1920 V 1080 H 0 Z"
         id="path7591" /></clipPath><clipPath
       clipPathUnits="userSpaceOnUse"
       id="clipPath7663"><path
         d="M 0,0 H 1920 V 1080 H 0 Z"
         id="path7661" /></clipPath><clipPath
       clipPathUnits="userSpaceOnUse"
       id="clipPath7695"><path
         d="M 0,0 H 1920 V 1080 H 0 Z"
         id="path7693" /></clipPath><clipPath
       clipPathUnits="userSpaceOnUse"
       id="clipPath7733"><path
         d="M 0,0 H 1920 V 1080 H 0 Z"
         id="path7731" /></clipPath><clipPath
       clipPathUnits="userSpaceOnUse"
       id="clipPath7757"><path
         d="M 0,0 H 1920 V 1080 H 0 Z"
         id="path7755" /></clipPath><clipPath
       clipPathUnits="userSpaceOnUse"
       id="clipPath7803"><path
         d="M 0,0 H 1920 V 1080 H 0 Z"
         id="path7801" /></clipPath></defs><sodipodi:namedview
     pagecolor="#ffffff"
     bordercolor="#666666"
     borderopacity="1"
     objecttolerance="10"
     gridtolerance="10"
     guidetolerance="10"
     inkscape:pageopacity="0"
     inkscape:pageshadow="2"
     inkscape:window-width="1920"
     inkscape:window-height="1023"
     id="namedview7571"
     showgrid="false"
     showguides="true"
     inkscape:zoom="0.38614659"
     inkscape:cx="842.86348"
     inkscape:cy="1013.0146"
     inkscape:window-x="0"
     inkscape:window-y="25"
     inkscape:window-maximized="1"
     inkscape:current-layer="g7577" /><g
     id="g7577"
     inkscape:groupmode="layer"
     inkscape:label="Sequencia_facil rapido seguro (1)"
     transform="matrix(1.3333333,0,0,-1.3333333,0,1440)"><g
       id="g8597"
       inkscape:export-filename="/home/carleone/Área de Trabalho/site-images/sequencia-1.png"
       inkscape:export-xdpi="165"
       inkscape:export-ydpi="165"><path
         d="m 706.9542,797.4231 87.378,-64.525 h 617.349"
         style="fill:none;stroke:#000000;stroke-width:0.965;stroke-linecap:round;stroke-linejoin:round;stroke-miterlimit:10;stroke-dasharray:none;stroke-opacity:1"
         id="path7581" /><path
         d="m 794.7109,547.8649 v 184.165"
         style="fill:none;stroke:#000000;stroke-width:0.965;stroke-linecap:round;stroke-linejoin:round;stroke-miterlimit:10;stroke-dasharray:none;stroke-opacity:1"
         id="path7585" /><g
         id="g7589"
         clip-path="url(#clipPath7593)"><g
           id="g7595"
           transform="translate(1192.6807,518.3391)"><path
             d="m 0,0 c -3.031,-0.028 -5.496,2.437 -5.468,5.468 l 0.659,41.314 c 0.042,4.285 1.785,6.38 6.066,6.558 l 40.572,0.734 0.784,5.924 c 0.757,3.633 3.9,6.278 7.609,6.402 l 132.01,1.43 c 3.473,0.117 6.628,-2.008 7.826,-5.269 l 2.353,-6.407 2.354,-0.056 c 4.355,-0.103 7.837,-3.654 7.857,-8.01 L 202.804,5.34 c 0.014,-2.982 -2.385,-5.414 -5.366,-5.441 L 5.382,-0.003 Z"
             style="fill:#000000;fill-opacity:1;fill-rule:nonzero;stroke:none"
             id="path7597" /></g><g
           id="g7599"
           transform="translate(1192.6807,518.3391)"><path
             d="m 0,0 c -3.031,-0.028 -5.496,2.437 -5.468,5.468 l 0.659,41.314 c 0.042,4.285 1.785,6.38 6.066,6.558 l 40.572,0.734 0.784,5.924 c 0.757,3.633 3.9,6.278 7.609,6.402 l 132.01,1.43 c 3.473,0.117 6.628,-2.008 7.826,-5.269 l 2.353,-6.407 2.354,-0.056 c 4.355,-0.103 7.837,-3.654 7.857,-8.01 L 202.804,5.34 c 0.014,-2.982 -2.385,-5.414 -5.366,-5.441 L 5.382,-0.003 Z"
             style="fill:none;stroke:#ffffff;stroke-width:1.055;stroke-linecap:round;stroke-linejoin:round;stroke-miterlimit:10;stroke-dasharray:none;stroke-opacity:1"
             id="path7601" /></g><g
           id="g7603"
           transform="translate(1384.1113,521.228)"><path
             d="m 0,0 -1.52,-17.667 c -0.093,-1.081 -0.998,-1.911 -2.083,-1.911 -1.101,0 -2.014,0.854 -2.086,1.953 l -1.16,17.604 z"
             style="fill:#000000;fill-opacity:1;fill-rule:nonzero;stroke:none"
             id="path7605" /></g><g
           id="g7607"
           transform="translate(1384.1113,521.228)"><path
             d="m 0,0 -1.52,-17.667 c -0.093,-1.081 -0.998,-1.911 -2.083,-1.911 -1.101,0 -2.014,0.854 -2.086,1.953 l -1.16,17.604 z"
             style="fill:none;stroke:#000000;stroke-width:1.055;stroke-linecap:round;stroke-linejoin:round;stroke-miterlimit:10;stroke-dasharray:none;stroke-opacity:1"
             id="path7609" /></g><g
           id="g7611"
           transform="translate(1351.5806,521.1259)"><path
             d="m 0,0 -1.52,-17.665 c -0.093,-1.082 -0.998,-1.913 -2.084,-1.913 -1.101,0 -2.014,0.853 -2.088,1.951 L -6.88,0.006 Z"
             style="fill:#000000;fill-opacity:1;fill-rule:nonzero;stroke:none"
             id="path7613" /></g><g
           id="g7615"
           transform="translate(1351.5806,521.1259)"><path
             d="m 0,0 -1.52,-17.665 c -0.093,-1.082 -0.998,-1.913 -2.084,-1.913 -1.101,0 -2.014,0.853 -2.088,1.951 L -6.88,0.006 Z"
             style="fill:none;stroke:#000000;stroke-width:1.055;stroke-linecap:round;stroke-linejoin:round;stroke-miterlimit:10;stroke-dasharray:none;stroke-opacity:1"
             id="path7617" /></g><g
           id="g7619"
           transform="translate(1205.574,521.1315)"><path
             d="m 0,0 -1.531,-17.709 c -0.094,-1.082 -1,-1.913 -2.086,-1.913 -1.101,0 -2.014,0.853 -2.088,1.952 l -1.194,17.62 z"
             style="fill:#000000;fill-opacity:1;fill-rule:nonzero;stroke:none"
             id="path7621" /></g><g
           id="g7623"
           transform="translate(1205.574,521.1315)"><path
             d="m 0,0 -1.531,-17.709 c -0.094,-1.082 -1,-1.913 -2.086,-1.913 -1.101,0 -2.014,0.853 -2.088,1.952 l -1.194,17.62 z"
             style="fill:none;stroke:#000000;stroke-width:1.055;stroke-linecap:round;stroke-linejoin:round;stroke-miterlimit:10;stroke-dasharray:none;stroke-opacity:1"
             id="path7625" /></g><g
           id="g7627"
           transform="translate(1237.0428,521.0853)"><path
             d="m 0,0 -1.507,-17.611 c -0.093,-1.083 -0.999,-1.914 -2.085,-1.914 -1.101,0 -2.013,0.852 -2.088,1.95 l -1.2,17.621 z"
             style="fill:#000000;fill-opacity:1;fill-rule:nonzero;stroke:none"
             id="path7629" /></g><g
           id="g7631"
           transform="translate(1237.0428,521.0853)"><path
             d="m 0,0 -1.507,-17.611 c -0.093,-1.083 -0.999,-1.914 -2.085,-1.914 -1.101,0 -2.013,0.852 -2.088,1.95 l -1.2,17.621 z"
             style="fill:none;stroke:#000000;stroke-width:1.055;stroke-linecap:round;stroke-linejoin:round;stroke-miterlimit:10;stroke-dasharray:none;stroke-opacity:1"
             id="path7633" /></g><g
           id="g7635"
           transform="translate(1192.678,571.5197)"><path
             d="m 0,0 c 3.114,0 5.77,-2.253 6.278,-5.325 l 4.631,-34.259 c 0.4,-2.423 2.495,-4.2 4.951,-4.2 h 104.983 c 3.526,0 6.553,2.509 7.208,5.973 l 6.405,35.254 c 0.552,2.922 3.055,5.071 6.026,5.176 l 52.174,0.282 m -91.947,-35.5 c 0.845,5.326 3.942,26.636 5.571,37.305 0.642,4.206 3.686,7.798 7.723,9.144"
             style="fill:none;stroke:#ffffff;stroke-width:1.003;stroke-linecap:round;stroke-linejoin:round;stroke-miterlimit:10;stroke-dasharray:none;stroke-opacity:1"
             id="path7637" /></g><g
           id="g7639"
           transform="translate(1230.0166,538.9197)"><path
             d="M 0,0 C 0.718,4.522 2.875,22.815 4.551,33.782"
             style="fill:none;stroke:#ffffff;stroke-width:0.965;stroke-linecap:round;stroke-linejoin:round;stroke-miterlimit:10;stroke-dasharray:none;stroke-opacity:1"
             id="path7641" /></g><g
           id="g7643"
           transform="translate(1331.84,518.3154)"><path
             d="m 0,0 c 4.88,0 8.837,3.856 8.837,8.736 v 39.407 c 0,4.276 -3.467,7.642 -7.743,7.642 M -10.545,20.613 h -107.481 c -3.077,0 -5.572,-2.855 -5.572,-5.572 0,-3.077 2.495,-5.572 5.572,-5.572"
             style="fill:none;stroke:#ffffff;stroke-width:1.003;stroke-linecap:round;stroke-linejoin:round;stroke-miterlimit:10;stroke-dasharray:none;stroke-opacity:1"
             id="path7645" /></g><g
           id="g7647"
           transform="translate(1412.2632,431.7178)"><path
             d="m 0,0 c 0,-38.74 -148.771,-70.146 -332.288,-70.146 -183.517,0 -332.288,31.406 -332.288,70.146 0,38.741 148.771,70.146 332.288,70.146 C -148.771,70.146 0,38.741 0,0"
             style="fill:#ffffff;fill-opacity:1;fill-rule:nonzero;stroke:none"
             id="path7649" /></g><g
           id="g7651"
           transform="translate(1412.2632,431.7178)"><path
             d="m 0,0 c 0,-38.74 -148.771,-70.146 -332.288,-70.146 -183.517,0 -332.288,31.406 -332.288,70.146 0,38.741 148.771,70.146 332.288,70.146 C -148.771,70.146 0,38.741 0,0 Z"
             style="fill:none;stroke:#000000;stroke-width:0.965;stroke-linecap:round;stroke-linejoin:round;stroke-miterlimit:10;stroke-dasharray:none;stroke-opacity:1"
             id="path7653" /></g></g><path
         d="M 852.565,700.289 H 962.381 V 619.684 H 852.565 Z"
         style="fill:#ffffff;fill-opacity:1;fill-rule:nonzero;stroke:#000000;stroke-width:1.212;stroke-linecap:round;stroke-linejoin:round;stroke-miterlimit:10;stroke-dasharray:none;stroke-opacity:1"
         id="path7655" /><g
         id="g7659"
         clip-path="url(#clipPath7663)"><g
           id="g7665"
           transform="translate(1168.9475,477.0838)"><path
             d="m 0,0 h -192.224 l -87.049,-90.738 H 79.323 c 6.583,0 11.92,5.336 11.92,11.919 v 0 c 0,3.618 -1.644,7.041 -4.468,9.303 z"
             style="fill:#000000;fill-opacity:1;fill-rule:nonzero;stroke:none"
             id="path7667" /></g><g
           id="g7669"
           transform="translate(1168.9475,477.0838)"><path
             d="m 0,0 h -192.224 l -87.049,-90.738 H 79.323 c 6.583,0 11.92,5.336 11.92,11.919 v 0 c 0,3.618 -1.644,7.041 -4.468,9.303 z"
             style="fill:none;stroke:#000000;stroke-width:0.965;stroke-linecap:round;stroke-linejoin:round;stroke-miterlimit:10;stroke-dasharray:none;stroke-opacity:1"
             id="path7671" /></g><g
           id="g7673"
           transform="translate(1168.5839,477.0838)"><path
             d="m 0,0 h -191.999 v 125.517 c 0,6.684 5.418,12.103 12.102,12.103 H -12.103 C -5.419,137.62 0,132.201 0,125.517 Z"
             style="fill:#000000;fill-opacity:1;fill-rule:nonzero;stroke:none"
             id="path7675" /></g><g
           id="g7677"
           transform="translate(1168.5839,477.0838)"><path
             d="m 0,0 h -191.999 v 125.517 c 0,6.684 5.418,12.103 12.102,12.103 H -12.103 C -5.419,137.62 0,132.201 0,125.517 Z"
             style="fill:none;stroke:#000000;stroke-width:0.965;stroke-linecap:round;stroke-linejoin:round;stroke-miterlimit:10;stroke-dasharray:none;stroke-opacity:1"
             id="path7679" /></g></g><path
         d="m 967.679,465.2106 h 194.75 m -209.537,-14.115 h 245.33 m -261.461,-13.298 h 228.985"
         style="fill:none;stroke:#ffffff;stroke-width:1.212;stroke-linecap:round;stroke-linejoin:round;stroke-miterlimit:10;stroke-dasharray:none;stroke-opacity:1"
         id="path7683" /><path
         d="m 1072.896,472.8298 -0.124,-34.873 m -15.664,34.711 -6.446,-34.833 m -10.392,35.237 -13.081,-35.252 m -4.934,35.579 -12.453,-24.304 m -2.534,23.877 -26.213,-36.893 m 10.25,37.43 -35.624,-38.136 m 133.453,37.733 5.899,-35.346 m 10.333,35.144 13.256,-34.994"
         style="fill:none;stroke:#ffffff;stroke-width:1.212;stroke-linecap:round;stroke-linejoin:round;stroke-miterlimit:10;stroke-dasharray:none;stroke-opacity:1"
         id="path7687" /><g
         id="g7691"
         clip-path="url(#clipPath7695)"><g
           id="g7697"
           transform="translate(1302.5347,348.5377)"><path
             d="M 0,0 C -69.566,45.117 -72.087,54.695 -72.087,54.695 L -90.87,87.843 c -13.582,26.984 -28.376,30.324 -33.35,29.069 l -3.863,-1.64 c 0,0 -7.122,4.202 -11.553,5.208 -10.029,2.277 -16.824,-1.277 -17.644,-1.176 -0.897,0.111 -0.869,-0.107 -2.016,0.336 -7.394,2.857 -22.068,7.142 -30.554,2.521 -5.225,-2.845 -3.238,-9.694 3.289,-14.686 7.776,-5.946 19.367,-2.622 26.649,-19.856 0,0 5.372,-11.27 -1.905,-16.877 -10.25,-7.897 -20.225,-0.564 -26.381,1.849 -12.435,4.873 -26.55,-3.361 -14.283,-13.611 16.968,-14.178 37.571,-24.941 49.995,-29.272 10.776,-3.757 21.371,-4.541 31.501,-9.796 19.857,-10.301 55.704,-78.136 55.704,-78.136"
             style="fill:#ffffff;fill-opacity:1;fill-rule:nonzero;stroke:#000000;stroke-width:0.965;stroke-linecap:round;stroke-linejoin:round;stroke-miterlimit:10;stroke-dasharray:none;stroke-opacity:1"
             id="path7699" /></g><g
           id="g7701"
           transform="translate(1162.5599,453.7554)"><path
             d="M 0,0 C 0,0 -5.843,10.855 -18.949,14.384 M 24.464,-3.56 c 0,0 -4.519,8.78 -13.157,13.928"
             style="fill:none;stroke:#000000;stroke-width:0.965;stroke-linecap:round;stroke-linejoin:round;stroke-miterlimit:10;stroke-dasharray:none;stroke-opacity:1"
             id="path7703" /></g><g
           id="g7705"
           transform="translate(1153.345,605.2048)"><path
             d="m 0,0 h -162.5 c -2.241,0 -4.058,-1.817 -4.058,-4.058 v -111.903 c 0,-2.241 1.817,-4.058 4.058,-4.058 H 0 c 2.241,0 4.058,1.817 4.058,4.058 V -4.058 C 4.058,-1.817 2.241,0 0,0"
             style="fill:#ffffff;fill-opacity:1;fill-rule:nonzero;stroke:none"
             id="path7707" /></g></g><path
         d="m 1044.7031,525.85142 h -26.641 v 65.307 h 26.641 z"
         style="fill:#ffffff;fill-opacity:1;fill-rule:nonzero;stroke:#000000;stroke-width:0.956;stroke-linecap:round;stroke-linejoin:round;stroke-miterlimit:10;stroke-dasharray:none;stroke-opacity:1"
         id="path7709" /><path
         d="m 1018.1176,545.93152 h 26.442"
         style="fill:none;stroke:#000000;stroke-width:0.956;stroke-linecap:round;stroke-linejoin:round;stroke-miterlimit:10;stroke-dasharray:none;stroke-opacity:1"
         id="path7713" /><path
         d="m 1082.26,525.6476 h -26.641 v 65.307 h 26.641 z"
         style="fill:#ffffff;fill-opacity:1;fill-rule:nonzero;stroke:#000000;stroke-width:0.956;stroke-linecap:round;stroke-linejoin:round;stroke-miterlimit:10;stroke-dasharray:none;stroke-opacity:1"
         id="path7715" /><path
         d="m 1055.6745,545.7277 h 26.442"
         style="fill:none;stroke:#000000;stroke-width:0.956;stroke-linecap:round;stroke-linejoin:round;stroke-miterlimit:10;stroke-dasharray:none;stroke-opacity:1"
         id="path7719" /><path
         d="m 1121.2965,524.76148 h -26.641 v 65.307 h 26.641 z"
         style="fill:#ffffff;fill-opacity:1;fill-rule:nonzero;stroke:#000000;stroke-width:0.956;stroke-linecap:round;stroke-linejoin:round;stroke-miterlimit:10;stroke-dasharray:none;stroke-opacity:1"
         id="path7721" /><path
         d="m 1094.7108,544.84158 h 26.442"
         style="fill:none;stroke:#000000;stroke-width:0.956;stroke-linecap:round;stroke-linejoin:round;stroke-miterlimit:10;stroke-dasharray:none;stroke-opacity:1"
         id="path7725" /><g
         id="g7751"><g
           id="g7767"
           transform="translate(1016.6497,447.4047)"><path
             d="m 0,0 c -0.106,-17.534 -18.479,-8.679 -18.479,-8.679 0,0 3.183,8.607 7.521,10.389 C -3.583,4.741 0,0 0,0"
             style="fill:#ffffff;fill-opacity:1;fill-rule:nonzero;stroke:none"
             id="path7769" /></g><g
           id="g7771"
           transform="translate(1016.6497,447.4047)"><path
             d="m 0,0 c -0.106,-17.534 -18.479,-8.679 -18.479,-8.679 0,0 3.183,8.607 7.521,10.389 C -3.583,4.741 0,0 0,0 Z"
             style="fill:none;stroke:#000000;stroke-width:0.965;stroke-linecap:round;stroke-linejoin:round;stroke-miterlimit:10;stroke-dasharray:none;stroke-opacity:1"
             id="path7773" /></g><g
           id="g7775"
           transform="translate(796.4633,360.3879)"><path
             d="m 0,0 c 28.177,21.235 114.384,62.757 114.384,62.757 l 19.66,27.221 c 17.392,24.701 32.515,25.836 37.251,23.865 l 3.581,-2.188 c 0,0 7.436,3.655 11.973,3.907 7.053,0.392 10.964,-2.899 10.964,-2.899 0,0 6.649,2.673 13.611,1.512 6.049,-1.008 15.528,-7.427 24.197,-14.115 8.822,-6.805 3.024,-20.164 -10.876,-14.982 l -4.269,1.649 c -6.979,2.697 -14.863,-0.381 -18.169,-7.093 l -4.505,-9.147 c -2.575,-5.228 1.958,-11.141 7.675,-10.01 l 19.879,3.929 c 5.903,1.167 11.987,-0.835 16.044,-5.278 2.127,-2.33 3.378,-7.965 -1.999,-10.654 -12.494,-6.247 -40.006,-22.574 -52.93,-25.037 -11.211,-2.136 -31.422,3.87 -42.213,0.157 -21.152,-7.278 -40.655,-33.132 -69.706,-56.76"
             style="fill:#ffffff;fill-opacity:1;fill-rule:nonzero;stroke:#000000;stroke-width:0.965;stroke-linecap:round;stroke-linejoin:round;stroke-miterlimit:10;stroke-dasharray:none;stroke-opacity:1"
             id="path7777" /></g><g
           id="g7779"
           transform="translate(980.0773,463.6411)"><path
             d="M 0,0 C 0,0 9.41,10.418 22.181,11.09 M -23.267,-3.029 c 0,0 5.481,7.637 14.385,11.561"
             style="fill:none;stroke:#000000;stroke-width:0.965;stroke-linecap:round;stroke-linejoin:round;stroke-miterlimit:10;stroke-dasharray:none;stroke-opacity:1"
             id="path7781" /></g></g><path
         d="m 866.494,686.687 h 81.957 v -53.4 h -81.957 z"
         style="fill:#000000;fill-opacity:1;fill-rule:nonzero;stroke:#ffffff;stroke-width:1.055;stroke-linecap:round;stroke-linejoin:round;stroke-miterlimit:10;stroke-dasharray:none;stroke-opacity:1"
         id="path7783" /><path
         d="m 986.6273,493.5994 h 170.858"
         style="fill:none;stroke:#000000;stroke-width:0.954;stroke-linecap:round;stroke-linejoin:round;stroke-miterlimit:10;stroke-dasharray:none;stroke-opacity:1"
         id="path7787" /><path
         d="M 1384.791,595.187 H 1190.719 V 713.18 h 194.072 z"
         style="fill:#ffffff;fill-opacity:1;fill-rule:nonzero;stroke:#000000;stroke-width:0.965;stroke-linecap:round;stroke-linejoin:round;stroke-miterlimit:10;stroke-dasharray:none;stroke-opacity:1"
         id="path7789" /><path
         d="m 1377.989,601.253 h -180.468 v 105.861 h 180.468 z"
         style="fill:#ffffff;fill-opacity:1;fill-rule:nonzero;stroke:#000000;stroke-width:0.965;stroke-linecap:round;stroke-linejoin:round;stroke-miterlimit:10;stroke-dasharray:none;stroke-opacity:1"
         id="path7791" /><path
         d="m 1288.7662,706.4426 v -104.181 m 0,104.277 v -104.663 m 68.005,96.959 -55.353,-55.353 m 43.916,58.268 -36.449,-36.449 m 61.3,-13.976 -39.471,-39.47 m 39.176,53.172 -51.322,-51.322"
         style="fill:none;stroke:#000000;stroke-width:0.965;stroke-linecap:round;stroke-linejoin:round;stroke-miterlimit:10;stroke-dasharray:none;stroke-opacity:1"
         id="path7795" /><g
         id="g7799"
         clip-path="url(#clipPath7803)"><g
           id="g7805"
           transform="translate(1324.4299,470.0393)"><path
             d="m 0,0 c 0,-4.752 -15.611,-8.865 -34.652,-8.865 -19.042,0 -34.479,3.852 -34.479,8.604 0,4.751 15.437,8.603 34.479,8.603 C -15.611,8.342 0,4.751 0,0 Z m -0.622,-6.68 c 0,0 18.889,2.553 18.351,-9.477 -0.458,-10.22 -26.99,-24.345 -26.99,-24.345"
             style="fill:none;stroke:#000000;stroke-width:1.249;stroke-linecap:round;stroke-linejoin:round;stroke-miterlimit:10;stroke-dasharray:none;stroke-opacity:1"
             id="path7807" /></g><g
           id="g7809"
           transform="translate(1323.5446,458.9127)"><path
             d="M 0,0 C 0,0 12.786,2.105 12.523,-4.867 12.237,-12.454 -4.999,-21.653 -4.999,-21.653"
             style="fill:none;stroke:#000000;stroke-width:1.052;stroke-linecap:round;stroke-linejoin:round;stroke-miterlimit:10;stroke-dasharray:none;stroke-opacity:1"
             id="path7811" /></g><g
           id="g7813"
           transform="translate(1289.7776,461.1748)"><path
             d="m 0,0 c -19.042,0 -34.478,3.852 -34.478,8.603 -1.079,-20.799 16.281,-50.218 20.656,-53.229 4.011,-2.76 27.041,-2.205 29.541,0.214 C 33.572,-27.134 34.539,2.005 34.536,8.189 33.143,3.73 18.133,0 0,0"
             style="fill:#ffffff;fill-opacity:1;fill-rule:nonzero;stroke:none"
             id="path7815" /></g><g
           id="g7817"
           transform="translate(1289.7776,461.1748)"><path
             d="m 0,0 c -19.042,0 -34.478,3.852 -34.478,8.603 -1.079,-20.799 16.281,-50.218 20.656,-53.229 4.011,-2.76 27.041,-2.205 29.541,0.214 C 33.572,-27.134 34.539,2.005 34.536,8.189 33.143,3.73 18.133,0 0,0 Z"
             style="fill:none;stroke:#000000;stroke-width:1.249;stroke-linecap:round;stroke-linejoin:round;stroke-miterlimit:10;stroke-dasharray:none;stroke-opacity:1"
             id="path7819" /></g><g
           id="g7821"
           transform="translate(1260.8292,465.1075)"><path
             d="m 0,0 c 6.143,-2.366 16.809,-3.933 28.948,-3.933 11.495,0 21.733,1.5 28.047,3.734 0.131,0.059 0.263,0.118 0.388,0.178 C 53.401,3.223 41.911,5.453 28.465,5.453 15.355,5.453 4.204,3.179 0,0"
             style="fill:#000000;fill-opacity:1;fill-rule:nonzero;stroke:none"
             id="path7823" /></g><g
           id="g7825"
           transform="translate(1260.8292,465.1075)"><path
             d="m 0,0 c 6.143,-2.366 16.809,-3.933 28.948,-3.933 11.495,0 21.733,1.5 28.047,3.734 0.131,0.059 0.263,0.118 0.388,0.178 C 53.401,3.223 41.911,5.453 28.465,5.453 15.355,5.453 4.204,3.179 0,0 Z"
             style="fill:none;stroke:#000000;stroke-width:1.269;stroke-linecap:round;stroke-linejoin:round;stroke-miterlimit:10;stroke-dasharray:none;stroke-opacity:1"
             id="path7827" /></g><g
           id="g7829"
           transform="translate(660.0422,391.7755)"><path
             d="m 0,0 c 84.383,0 152.788,68.406 152.788,152.788 0,84.383 -68.405,152.788 -152.788,152.788 -84.383,0 -152.788,-68.405 -152.788,-152.788 C -152.788,68.406 -84.383,0 0,0"
             style="fill:#5270ed;fill-opacity:1;fill-rule:nonzero;stroke:none"
             id="path7831" /></g></g><text
         transform="matrix(1,0,0,-1,651.3558,584.2403)"
         style="font-variant:normal;font-weight:900;font-stretch:normal;font-size:30px;font-family:'Roboto Black';-inkscape-font-specification:Roboto-Black;writing-mode:lr-tb;fill:#ffffff;fill-opacity:1;fill-rule:nonzero;stroke:none"
         id="text7835"><tspan
           x="0"
           y="0"
           id="tspan7833">1</tspan></text><text
         transform="matrix(1,0,0,-1,585.7015,554.2403)"
         style="font-variant:normal;font-weight:normal;font-stretch:normal;font-size:25px;font-family:Roboto;-inkscape-font-specification:Roboto-Regular;writing-mode:lr-tb;fill:#ffffff;fill-opacity:1;fill-rule:nonzero;stroke:none"
         id="text7839"><tspan
           x="0 15.345 29.594999 42.669998 55.919998 62.119999 75.370003 88.269997 101.345 115.595 121.67 135.44501 148.69501"
           y="0"
           sodipodi:role="line"
           id="tspan7837">Você escolhe </tspan></text><text
         transform="matrix(1,0,0,-1,568.7887,524.2403)"
         style="font-variant:normal;font-weight:normal;font-stretch:normal;font-size:25px;font-family:Roboto;-inkscape-font-specification:Roboto-Regular;writing-mode:lr-tb;fill:#ffffff;fill-opacity:1;fill-rule:nonzero;stroke:none"
         id="text7843"><tspan
           x="0 13.775 35.674999 41.875 54.775002 68.025002 76.697502 88.797501 94.872498 107.9475 122.1975 128.39751 141.64751 147.8475 156.52251 170.1225 182.52251"
           y="0"
           sodipodi:role="line"
           id="tspan7841">um serviço e faz </tspan></text><text
         transform="matrix(1,0,0,-1,584.7433,494.2403)"
         style="font-variant:normal;font-weight:normal;font-stretch:normal;font-size:25px;font-family:Roboto;-inkscape-font-specification:Roboto-Regular;writing-mode:lr-tb;fill:#ffffff;fill-opacity:1;fill-rule:nonzero;stroke:none"
         id="text7847"><tspan
           x="0 12.9 26.15 39.924999 46.125 59.200001 72.800003 86.900002 100.5 113.4 121.575 129.75999 144.00999"
           y="0"
           sodipodi:role="line"
           id="tspan7845">seu cadastro.</tspan></text><rect
         style="opacity:1;fill:none;stroke-width:0.75"
         id="rect8499"
         width="1055.0471"
         height="632.24347"
         x="475.16666"
         y="-894.18896"
         transform="scale(1,-1)" /></g></g></svg>
